<svg xmlns="http://www.w3.org/2000/svg" width="195.634" height="46" viewBox="0 0 195.634 46">
  <g id="Democratichna_Bulgaria_Logo_Gray" transform="translate(-799.555 -3183.865)">
    <g id="Group_266" data-name="Group 266" transform="translate(799.555 3183.865)">
      <path id="Path_69" data-name="Path 69" d="M843.99,3205.39a21.526,21.526,0,1,1-21.525-21.526A21.526,21.526,0,0,1,843.99,3205.39Z" transform="translate(-800.878 -3183.865)" fill="#fff"/>
      <path id="Path_70" data-name="Path 70" d="M806.294,3206.806c4.889-3.556,9.538-5.114,14.864-8.166,2.214-1.268,5.335-3.372,5.286-6.3-.052-3.032-3.759-5.286-7.086-5.286a12.149,12.149,0,0,0-1.505.09c-.75.124-1.358.237-2.088.408a22.459,22.459,0,0,0-4.533,1.744,21.17,21.17,0,0,0-10.339,11.758,21.7,21.7,0,0,0-1.336,7.667,22.182,22.182,0,0,0,.319,3.721,19.23,19.23,0,0,0,1.194,3.817C800.48,3211.381,803.355,3208.944,806.294,3206.806Z" transform="translate(-799.555 -3186.916)" fill="#004177"/>
      <path id="Path_71" data-name="Path 71" d="M906.113,3561.58" transform="translate(-901.423 -3544.955)" fill="#fff"/>
      <path id="Path_72" data-name="Path 72" d="M1550.262,4043.63" transform="translate(-1517.22 -4005.788)" fill="#fff"/>
      <path id="Path_73" data-name="Path 73" d="M1617.553,3841.788" transform="translate(-1581.549 -3812.83)" fill="#fff"/>
      <path id="Path_74" data-name="Path 74" d="M1115.556,3655.869c0-.263-.01-.524-.02-.785-3.522,4.02-8.86,6.727-13.211,8.814l-.006-.008s-13.811,7.027-17.324,11.535a21.536,21.536,0,0,0,30.561-19.556Z" transform="translate(-1072.432 -3634.344)" fill="#a00015"/>
      <path id="Path_75" data-name="Path 75" d="M988.428,3251.736c-.568-.5-1.151-.985-1.752-1.446a21.69,21.69,0,0,0-2.057-1.344c1.877,1.3,3.639,2.775,3.934,5.422.559,5.041-3.11,8.046-6.187,10.348a73.8,73.8,0,0,1-8.484,4.937,80.206,80.206,0,0,0-9.348,5.444c-1.715,1.195-6.857,5.027-4.7,8.511,1.082,1.743,4.205,3.288,6.332,4.115.525-1.769,7.392-6.579,15.178-10.04,6.16-2.739,13.049-6.471,14.06-10.074A21.478,21.478,0,0,0,988.428,3251.736Z" transform="translate(-952.286 -3246.081)" fill="#008838"/>
    </g>
    <path id="Path_76" data-name="Path 76" d="M2216.419,3221.513v4.431h-2.355l-.115-2.142h-8.286l-.115,2.142h-2.355v-4.431h1.4s1.252-1.1,1.252-9.24h8.911v9.24Zm-4.629-7.33h-3.163c0,6.178-.988,7.33-.988,7.33h4.151Zm14.219,6.194h-5.782c.017,1.2.956,1.564,2.273,1.564a9.1,9.1,0,0,0,3.1-.658l.165,2.141a10.267,10.267,0,0,1-3.558.543c-3.179,0-4.826-1.6-4.826-4.4a4.184,4.184,0,0,1,4.546-4.5c2.5,0,4.168,1.417,4.168,4.1A9.986,9.986,0,0,1,2226.009,3220.376Zm-2.537-1.762a1.375,1.375,0,0,0-1.466-1.532c-.824,0-1.466.313-1.7,1.532Zm15.306-3.377v8.565h-2.768v-2.4a29.659,29.659,0,0,1,.165-3.08h-.065l-1.879,4.86h-2.075l-1.878-4.86h-.066c.066.906.083,2.142.083,3.08v2.4h-2.6v-8.565h3.838l1.8,4.53,1.812-4.53Zm1.551,4.266c0-2.833,1.779-4.431,4.645-4.431s4.645,1.6,4.645,4.431-1.8,4.464-4.645,4.464S2240.33,3222.336,2240.33,3219.5Zm6.441.032c0-1.531-.56-2.323-1.8-2.323s-1.8.792-1.8,2.323c0,1.483.56,2.29,1.8,2.29S2246.771,3221.019,2246.771,3219.536Zm10.166-.922,2.981,5.188h-3.129l-1.7-3.178-.989,1.071v2.108h-2.8v-12.057h2.8v6.77l2.883-3.278h3.064Zm13.395.873c0,2.405-1.219,4.48-3.887,4.48a3.08,3.08,0,0,1-2.553-1.054v3.691h-2.8v-11.367h2.4l.231,1.087a3.157,3.157,0,0,1,2.734-1.252C2269.178,3215.072,2270.331,3217.23,2270.331,3219.487Zm-2.85,0c0-1.482-.675-2.274-1.844-2.274-1.087,0-1.812.808-1.812,2.274,0,1.548.725,2.339,1.812,2.339C2266.822,3221.826,2267.481,3221.035,2267.481,3219.487Zm13.692,4.2a12.942,12.942,0,0,1-1.943.2c-1.187,0-1.762-.461-1.961-1.137a2.975,2.975,0,0,1-2.767,1.219c-1.993,0-3.1-.857-3.1-2.619,0-2.159,1.63-2.768,4.085-2.768.478,0,.923.018,1.466.05v-.412c0-.379-.115-.989-1.549-.989a12.227,12.227,0,0,0-3.245.594l-.23-2.257a14.658,14.658,0,0,1,3.855-.495c2.488,0,3.971.61,3.971,3.031v3c0,.461.263.561.526.561a3.724,3.724,0,0,0,.84-.115Zm-4.217-2.933v-.429c-.378-.032-.757-.048-1.038-.048-1.416,0-1.647.444-1.647.922,0,.692.494.84,1.087.84C2276.215,3222.04,2276.956,3221.727,2276.956,3220.755Zm18.4-2.355v5.4h-2.8v-5.353c0-.609-.214-1.236-1.087-1.236-1.136,0-1.268,1.088-1.268,1.664v4.925h-2.8v-5.337c0-.576-.2-1.252-1.07-1.252-.939,0-1.285.759-1.285,1.566v5.023h-2.8v-8.565h2.438l.165,1.2a2.507,2.507,0,0,1,2.339-1.368,2.287,2.287,0,0,1,2.274,1.5,3.208,3.208,0,0,1,2.9-1.5C2293.81,3215.072,2295.359,3215.682,2295.359,3218.4Zm10.249-3.163v8.565h-2.454l-.165-1.185a2.956,2.956,0,0,1-2.652,1.351c-1.466,0-3.064-.4-3.064-3.212v-5.519h2.8v5.173c0,1.055.511,1.416,1.17,1.416,1.071,0,1.565-.956,1.565-2.075v-4.514Zm9.771,0v8.565h-2.8v-2.964a5.716,5.716,0,0,1-2.488.56,2.63,2.63,0,0,1-2.833-2.948v-3.212h2.768v2.816c0,.775.3,1.2,1.038,1.2a3.806,3.806,0,0,0,1.516-.346v-3.673Zm10.4,8.565h-2.8v-3.244h-2.751v3.244h-2.8v-8.565h2.8v3.294h2.751v-3.294h2.8Zm11.27-.114a12.952,12.952,0,0,1-1.944.2c-1.186,0-1.762-.461-1.96-1.137a2.975,2.975,0,0,1-2.767,1.219c-1.993,0-3.1-.857-3.1-2.619,0-2.159,1.63-2.768,4.085-2.768.478,0,.923.018,1.466.05v-.412c0-.379-.116-.989-1.549-.989a12.213,12.213,0,0,0-3.244.594l-.231-2.257a14.652,14.652,0,0,1,3.855-.495c2.487,0,3.969.61,3.969,3.031v3c0,.461.263.561.527.561a3.72,3.72,0,0,0,.84-.115Zm-4.217-2.933v-.429c-.379-.032-.758-.048-1.039-.048-1.416,0-1.646.444-1.646.922,0,.692.494.84,1.087.84C2332.087,3222.04,2332.829,3221.727,2332.829,3220.755Z" transform="translate(-1341.856 -26.653)" fill="#89989f"/>
    <path id="Path_77" data-name="Path 77" d="M2200.26,3616.776h8.764v2.339h-5.8v1.8h3.229a3.371,3.371,0,0,1,3.673,3.641,3.469,3.469,0,0,1-3.673,3.755h-6.194Zm5.486,9.225a1.394,1.394,0,1,0,0-2.784h-2.521V3626Zm15.833-1.368c0,2.719-1.845,3.839-4.3,3.839-2.372,0-4.349-.923-4.349-4V3621.6h-2.273v-1.861h5.073v2.174a2.991,2.991,0,0,1,2.405-1.054C2219.8,3620.862,2221.579,3621.784,2221.579,3624.633Zm-2.817.033c0-1.384-.528-2.076-1.516-2.076-1.005,0-1.565.692-1.565,2.076,0,1.367.56,2.075,1.565,2.075C2218.234,3626.742,2218.762,3625.968,2218.762,3624.667Zm9.919,3.64-1.878-6.16-1.911,6.16h-2.883l3-8.565h3.657l2.981,8.565Zm3.412-2.371c0-1.763,1.4-2.274,2.783-2.636,1-.263,1.829-.576,1.812-1.137-.015-.362-.3-.593-1.2-.593a8.156,8.156,0,0,0-2.652.626l-.2-2.059a10.3,10.3,0,0,1,3.261-.56c1.844,0,3.788.56,3.8,2.586.017,1.977-1.894,2.454-3.1,2.75-1,.248-1.466.495-1.466,1.022,0,.4.313.56,1.235.56a7.923,7.923,0,0,0,3.015-.758l.165,2.075a8.928,8.928,0,0,1-3.574.659C2234.053,3628.472,2232.094,3627.945,2232.094,3625.935Zm18.435,2.256a12.759,12.759,0,0,1-1.943.2c-1.186,0-1.763-.46-1.96-1.135a2.977,2.977,0,0,1-2.768,1.219c-1.993,0-3.1-.857-3.1-2.62,0-2.158,1.63-2.767,4.084-2.767.478,0,.923.017,1.466.049v-.411c0-.379-.115-.989-1.549-.989a12.235,12.235,0,0,0-3.245.593l-.231-2.258a14.656,14.656,0,0,1,3.854-.493c2.488,0,3.97.608,3.97,3.03v3c0,.46.263.56.527.56a3.637,3.637,0,0,0,.84-.116Zm-4.217-2.931v-.429c-.378-.033-.757-.05-1.038-.05-1.416,0-1.646.445-1.646.923,0,.691.493.841,1.087.841C2245.57,3626.545,2246.311,3626.231,2246.311,3625.26Zm14.532-1.268c0,2.4-1.219,4.48-3.888,4.48a3.08,3.08,0,0,1-2.553-1.054v3.689h-2.8v-11.366h2.4l.231,1.087a3.158,3.158,0,0,1,2.734-1.251C2259.69,3619.577,2260.843,3621.735,2260.843,3623.992Zm-2.85,0c0-1.482-.676-2.274-1.845-2.274-1.087,0-1.812.808-1.812,2.274,0,1.547.725,2.339,1.812,2.339C2257.335,3626.331,2257.993,3625.539,2257.993,3623.992Zm12.737-4.25v8.565h-2.455l-.164-1.186a2.955,2.955,0,0,1-2.652,1.352c-1.466,0-3.064-.4-3.064-3.212v-5.519h2.8v5.172c0,1.055.511,1.417,1.17,1.417,1.071,0,1.565-.956,1.565-2.076v-4.513Zm10.034,0v8.565h-2.8v-2.866h-1.235l-1.483,2.866h-3l1.812-3.112a2.655,2.655,0,0,1-1.647-2.6,2.739,2.739,0,0,1,3-2.849Zm-2.8,1.795h-1.581c-.824,0-1.334.347-1.334,1.054s.51,1.054,1.317,1.054h1.6Z" transform="translate(-1339.054 -413.857)" fill="#89989f"/>
    <g id="Group_267" data-name="Group 267" transform="translate(861.936 3222.177)">
      <path id="Path_78" data-name="Path 78" d="M2216.838,4057.6c0-2.1.915-3.295,2.6-3.295s2.608,1.19,2.608,3.295-.915,3.3-2.608,3.3S2216.838,4059.71,2216.838,4057.6Zm4.182,0c0-1.793-.659-2.526-1.583-2.526s-1.574.733-1.574,2.526.65,2.526,1.574,2.526S2221.02,4059.4,2221.02,4057.6Z" transform="translate(-2216.838 -4054.31)" fill="#89989f"/>
      <path id="Path_79" data-name="Path 79" d="M2422.9,4056.4h3.807v.722h-2.874v1.73h1.41a1.978,1.978,0,0,1,.027,3.954h-2.37Zm2.1,5.684a1.162,1.162,0,0,0,1.245-1.273,1.142,1.142,0,0,0-1.272-1.235h-1.144v2.508Z" transform="translate(-2413.834 -4056.306)" fill="#89989f"/>
      <path id="Path_80" data-name="Path 80" d="M2611.063,4057.157h-2.737v2.142h2.379v.751h-2.379v1.995h2.81v.76h-3.78V4056.4h3.707Z" transform="translate(-2590.167 -4056.306)" fill="#89989f"/>
      <path id="Path_81" data-name="Path 81" d="M2770.422,4062.063v1.931h-.741l-.046-1.189h-4.3l-.036,1.189h-.741v-1.931h.668s.668-.879.668-5.665h3.744v5.665Zm-1.72-5.016h-1.922c0,4.055-.576,5.016-.576,5.016h2.5Z" transform="translate(-2740.448 -4056.306)" fill="#89989f"/>
      <path id="Path_82" data-name="Path 82" d="M2985.882,4056.4v6.407h-.924v-3.112l.009-1.684-2.609,4.8h-.915V4056.4h.915v3.331l-.009,1.446,2.627-4.777Z" transform="translate(-2947.789 -4056.306)" fill="#89989f"/>
      <path id="Path_83" data-name="Path 83" d="M3180.936,4062.8h-.97v-2.773h-2.507v2.773h-.97V4056.4h.97v2.855h2.507V4056.4h.97Z" transform="translate(-3134.25 -4056.306)" fill="#89989f"/>
      <path id="Path_84" data-name="Path 84" d="M3375.668,4057.157h-2.737v2.142h2.38v.751h-2.38v1.995h2.81v.76h-3.78V4056.4h3.707Z" transform="translate(-3321.119 -4056.306)" fill="#89989f"/>
      <path id="Path_85" data-name="Path 85" d="M3547.753,4062.8h-.97v-2.773h-2.508v2.773h-.97V4056.4h.97v2.855h2.508V4056.4h.97Z" transform="translate(-3484.921 -4056.306)" fill="#89989f"/>
      <path id="Path_86" data-name="Path 86" d="M3743.007,4056.4v6.407h-.924v-3.112l.009-1.684-2.608,4.8h-.915V4056.4h.915v3.331l-.009,1.446,2.627-4.777Z" transform="translate(-3671.59 -4056.306)" fill="#89989f"/>
      <path id="Path_87" data-name="Path 87" d="M3937.32,4057.157h-2.737v2.142h2.38v.751h-2.38v1.995h2.81v.76h-3.78V4056.4h3.707Z" transform="translate(-3858.051 -4056.306)" fill="#89989f"/>
    </g>
  </g>
</svg>
