<svg xmlns="http://www.w3.org/2000/svg" width="156.532" height="46" viewBox="0 0 156.532 46">
  <g id="DSB_Logo_Gray" transform="translate(-923 -862)">
    <path id="Path_149" data-name="Path 149" d="M382.981,44.707a1.823,1.823,0,0,1-1.807,1.807H339.807A1.8,1.8,0,0,1,338,44.707h0V3.307A1.8,1.8,0,0,1,339.807,1.5h41.4a1.8,1.8,0,0,1,1.807,1.807h0v41.4" transform="translate(696.057 860.993)" fill="#fff" fill-rule="evenodd"/>
    <path id="Path_150" data-name="Path 150" d="M380.2,46H338.8a2.286,2.286,0,0,1-2.3-2.3V2.3A2.286,2.286,0,0,1,338.8,0h41.367a2.286,2.286,0,0,1,2.3,2.3V43.7A2.258,2.258,0,0,1,380.2,46ZM338.8,1.019A1.283,1.283,0,0,0,337.519,2.3V43.7a1.283,1.283,0,0,0,1.281,1.281h41.367a1.283,1.283,0,0,0,1.281-1.281V2.3a1.283,1.283,0,0,0-1.281-1.281Z" transform="translate(697.064 862)" fill="#005490"/>
    <path id="Path_151" data-name="Path 151" d="M363.917,10.2h-.033l-.066.066s-.033.033,0,.033a.032.032,0,0,0,.033.033l.1.066h.066v-.033l-.1-.164h0m.427-.033-.033.033v.033l.066.1c0,.033.033.033.066.033l.033-.033V10.3l-.066-.1c0-.033-.033-.033-.066-.033ZM358.791,8.1h.033v.033a.032.032,0,0,0,.033.033h.066a.032.032,0,0,0,.033-.033h0c0-.033,0-.033-.033-.033h0l.033-.033c0-.033,0-.033-.033-.033l-.1-.066h-.033a.032.032,0,0,0-.033.033l-.033.1c.033-.033.033,0,.066,0ZM358.66,9.87c0,.033.033.033.066.033h.033v.033h-.033l-.033.033V10h0l-.1.033-.033.033h0c0,.033,0,.033.033.033a5,5,0,0,0,1.38.2,5.015,5.015,0,0,1,.986.1h.033l.1-.1v-.033h0v-.033a.823.823,0,0,1,.23.131l.164.1a3.031,3.031,0,0,0,1.216.164,4.4,4.4,0,0,1,.657.033l.493.164,1.971.657h.033v-.1a4.743,4.743,0,0,1,1.314.591,5.121,5.121,0,0,0,1.216.559c.033,0,.033,0,.066-.033v-.066l-.1-.1a.9.9,0,0,1,.624.263c.066.066.131.1.2.164h.033l.033-.033h0v-.066a3,3,0,0,1,.427.263,8.358,8.358,0,0,0,.92.526l.329.1a6.986,6.986,0,0,1,2.333,1.084h.1c.033,0,.033-.033.066-.066a6.41,6.41,0,0,0,2.366.953c.033,0,.066,0,.066-.033,0,0,0-.033.066-.033.066.1.066.1.131.131h0l-.033.033-.033.033h0c0,.033,0,.033.033.033l.69.131c.033,0,.033,0,.033-.033l.033-.033a.121.121,0,0,0,.033-.1v-.066h0l.1.164h.066a.719.719,0,0,1,.164-.1c.066-.033.1-.066.1-.131v-.033l.164.033h.033l.1-.1v-.066h0l-.394-.394h-.033a.609.609,0,0,0-.23.066,8.332,8.332,0,0,0-1.709-.657c-.033,0-.066,0-.066.033h0v.066l-.131-.164a.032.032,0,0,1-.033-.033.032.032,0,0,0-.033.033c-.066.066-.23.033-.361-.033l.033-.033a.032.032,0,0,0,.033-.033h0v-.033a1.689,1.689,0,0,0-.92-.493,1.53,1.53,0,0,1-.821-.427h-.033l-.2-.066h-.033v.164l-.1-.1.1-.066.033-.033h0a.032.032,0,0,0-.033-.033.314.314,0,0,1-.23-.066v-.066h0v-.033l-.033-.033a3.669,3.669,0,0,1-1.939-.624l-.591-.3v-.131l.164.1h.066v-.066a1.549,1.549,0,0,0-.986-.394l-.033.033h0v.033l.23.164-.23.033c0-.394-.559-.493-.887-.559h-.033v.033h0l.033.1h-.2v.1l.033.033-.066-.033-.066-.394a.032.032,0,0,0-.033-.033h-.033a.641.641,0,0,1-.263.033,1.348,1.348,0,0,0-.361.033l-.526-.493h-.066l-.164.131-.854-.23-.69-.2h0c0-.033,0-.033-.033-.033l-.1-.1h-.066l-.033.033v.066l-.2-.066c-.033,0-.033,0-.066.033V10.3l.1.066a1.3,1.3,0,0,1-.69-.131l-.23-.1.066-.066v-.033h0a.032.032,0,0,0-.033-.033l-.2-.066h0s.033-.033,0-.033V9.87c0-.033,0-.033-.033-.033l-.164-.033c-.033,0-.033,0-.033.033h0c0,.033,0,.033.033.033h0l.1.033a1.305,1.305,0,0,0-.789.066l-.1.033c0-.033-.033-.033-.033-.066a.341.341,0,0,0-.263-.2h-.033v.033h0v.066l-.033.033V9.9h0a.032.032,0,0,0,.033.033l.164.1a3.124,3.124,0,0,1-.789-.23l-.361-.131c-.033,0-.033,0-.066.033v.066l.066.066c-.164.066-.361.1-.46-.033l-.033-.033L360.4,9.8a.032.032,0,0,0-.033.033h0l-.3-.033c.033,0,0-.033,0-.033,0-.033,0-.033-.033-.033h0l-.066-.033h-.033a.032.032,0,0,0-.033.033h0v.033s-.1.033-.066.033a1.167,1.167,0,0,1-.329-.066h-.033v.1l-.329-.131h-.033l-.033.033V9.87h-.1a.032.032,0,0,0-.033-.033h-.066V9.8a.032.032,0,0,0-.033-.033h-.131l.033-.033c0-.033,0-.033-.033-.033l-.1-.033h-.033v.033Zm9.463,1.709h0l.263.23v.033l-.033.033-.46-.263a.2.2,0,0,0,.23-.033Zm-6.111-1.741h-.1c-.033,0-.033,0-.033.033V9.9l.131.1h.066V9.969l-.033-.1-.033-.033Zm-3.943.329c-.033,0-.033,0-.033.033h0a.032.032,0,0,0,.033.033h.1a.033.033,0,0,0,0-.066h-.1Zm.263-2.07a.033.033,0,1,0,0,.066h.1a.033.033,0,0,0,0-.066h-.1Zm.066-.066A.032.032,0,0,0,358.43,8h0V7.964a.032.032,0,0,0-.033-.033l-.493-.066c-.033,0-.033,0-.033.033v.033a.7.7,0,0,0,.526.1Zm-.723,2.07h.427a.032.032,0,0,0,.033-.033h0v-.033A.032.032,0,0,0,358.1,10l-.23-.033h0l-.23.066a.032.032,0,0,0-.033.033C357.674,10.067,357.674,10.1,357.674,10.1Zm.033,4.4h0c0,.033,0,.066.033.066l.131.066h.066V14.6a.032.032,0,0,0-.033-.033l-.131-.1c-.033,0-.066,0-.066.033Zm29.079,7.327h.131a.033.033,0,0,0,0-.066h-.131c-.033,0-.033,0-.033.033h0l.033.033Zm-26.22-7.656c-.033,0-.033,0-.033.033h0c0,.033,0,.033.033.033l.164.033h.033v-.066a.032.032,0,0,0-.033-.033h-.164ZM358.43,9.969l.033.033s.033.066.066.033h.033c.033,0,.033,0,.033-.033h0c0-.033,0-.033-.033-.033l-.1-.066H358.4a.1.1,0,0,1,.033.066Zm.1,0Zm.493,4.337a.032.032,0,0,0-.033.033c0,.033,0,.033.033.033l.164.033h.033s.033-.033,0-.033v-.033a.032.032,0,0,0-.033-.033h-.164Zm11.96.3.1.066a.1.1,0,0,0,.066-.033h0a.032.032,0,0,0-.033-.033l-.1-.066.033.033V14.6c-.033.033-.066.033-.066,0Zm14.556,7.229H385.5l-.066.066-.033.033v.033c0,.033,0,.033.033.033l.1.033h.033c.033,0,.033,0,.033-.033v-.033l-.066-.1V21.83ZM365.1,8.983l.1.033h.066l.066-.1V8.884a.032.032,0,0,0-.033-.033h-.1l-.1.066-.033.033.033.033Zm-2.267-.591.164.1h.066V8.424l-.033-.033c-.033-.033-.066-.066-.1-.066h-.066c-.033,0-.033,0-.066.033a.032.032,0,0,1,.033.033Zm-3.647-.427h.066l.033-.033V7.9a.032.032,0,0,0-.033-.033l-.1-.066h-.066v.066Zm1.577.23h0a.032.032,0,0,0,.033-.033c0-.033,0-.033-.033-.033L360.7,8.1h-.033a.115.115,0,0,0-.033.066c0,.033.1.033.131.033Zm-.033-.033Zm0,0ZM374.1,16.474v-.033l-.033-.1a.032.032,0,0,0-.033-.033h-.066c-.033,0-.033,0-.033.033v.033l.1.1a.032.032,0,0,0,.033.033Zm-19.419-2.037a.032.032,0,0,0,.033.033h.1a.033.033,0,0,0,0-.066h-.1A.032.032,0,0,0,354.684,14.437Zm7.1-5.651c.033,0,.033,0,.033-.033l.033-.066V8.654h0a6.009,6.009,0,0,1,.821.263,9.829,9.829,0,0,0,1.051.329c.3.066.591.1.854.164a5.323,5.323,0,0,1,1.249.3l.394.131a4.386,4.386,0,0,0,1.281.427.032.032,0,0,0,.033-.033h0c.23.066.559.2.821.3a2.583,2.583,0,0,0,.854.263,2.641,2.641,0,0,0,1.15.723h.1c.033,0,.033,0,.033-.033h0a.032.032,0,0,0-.033-.033l-.131-.1a.773.773,0,0,1,.263.066,1.074,1.074,0,0,1,.493.361l.033.033.2.1h.033l.033-.033v-.066c.164.066.591.3.953.46h-.066c-.033,0-.033,0-.033.033h0a.032.032,0,0,0,.033.033h.033v.033l.723.427h.1c.033,0,.066,0,.066-.033h0v-.033a4.834,4.834,0,0,0,1.281.69,4.221,4.221,0,0,1,1.511.92h.066l.033-.033a.071.071,0,0,0,.066-.066,4.847,4.847,0,0,0,1.446.821,6.49,6.49,0,0,1,1.249.657h.066s.033-.033,0-.033h0a.1.1,0,0,0-.033-.066.249.249,0,0,1,.131.066.171.171,0,0,0,.131.066l-.066.066-.033.033a.032.032,0,0,0,.033.033c.263.164.69.3.854.164.033-.033.066-.066.066-.1a.959.959,0,0,1,.3.066l.263.066h.033v-.066l-.033-.066.1.033h.066l.066-.131v-.066l-.427-.361h-.066l-.033.033a1.945,1.945,0,0,1-.2-.131h-.033l-.033.033h0c-.1-.066-.3-.164-.3-.164a6.967,6.967,0,0,0-1.577-.756h-.033v.033h0v.1c-.033-.033-.033-.066-.066-.164l-.033-.033-.559-.131v-.033l.066-.033s.033-.033,0-.033h0a.032.032,0,0,0-.033-.033,2.21,2.21,0,0,1-.361-.23,1.8,1.8,0,0,0-.3-.23h-.1a5.685,5.685,0,0,0-1.446-.821h-.066a.171.171,0,0,0-.066.131v.033l-.131-.1.164-.066.033-.033c0-.033,0-.033-.033-.033l-.066-.033.033-.033h.033l-.033-.033h0a.032.032,0,0,0-.033-.033h-.1a.032.032,0,0,0-.033.033l-.131-.066h.033l.033-.033h0a.032.032,0,0,0-.033-.033,3.968,3.968,0,0,1-1.807-.624l.1.066h.1c.033,0,.033,0,.033-.033h0a.032.032,0,0,0-.033-.033h-.066l-.164-.066h-.066v.066l-.066-.033a5.617,5.617,0,0,0-1.084-.559v-.1l.263.1h.033v-.033l-.033-.1a.032.032,0,0,0-.033-.033l-1.051-.427h-.066v.066l.23.23a.73.73,0,0,1-.3-.033c-.033-.3-.394-.526-1.051-.657-.033,0-.033,0-.033.033v.066l.066.1-.164-.033h-.033v.033a.494.494,0,0,1-.131-.361.032.032,0,0,0-.033-.033h-.69l-.657-.526s-.033-.033-.033,0h0s-.131.131-.164.131-.361-.131-.361-.131a13.5,13.5,0,0,0-1.873-.559c-.033,0-.033,0-.033.033h0v.033l.1.066a2.038,2.038,0,0,1-1.051-.3l.033-.033V8.819h0V8.786a.661.661,0,0,0-.263-.131h0l.033-.033h0l-.2-.1c-.033,0,0-.033-.033,0a.032.032,0,0,0-.033.033v.066a1.807,1.807,0,0,0-.723.066l-.164.033-.3-.263h-.033L363,8.49v.033h-.066c-.033,0-.033,0-.033.033h0v.033l.1.066-1.281-.361c-.033,0-.033,0-.066.033v.033a.032.032,0,0,0,.033.033l.066.033a.588.588,0,0,1-.559-.131h-.033l-.131.033a.032.032,0,0,0-.033.033v.066h0l-1.051-.263h-.033v.033h0v.033h0a.474.474,0,0,0-.427-.1.032.032,0,0,0-.033.033v.066l-.493-.131c-.033,0-.033,0-.033.033h0l.066-.066V8.1A15.774,15.774,0,0,0,361.781,8.786ZM372.46,12.3h-.033v-.033Zm-2.3-1.774h0c.033.033.3.263.329.3l-.033.033c-.1-.066-.23-.131-.329-.2L370,10.593c.033-.033.1-.033.164-.066Zm.657,2.07h0l-.164-.066c-.033,0-.033,0-.066.033h0c0,.033,0,.033.033.033l.1.033a.032.032,0,0,0,.033.033h.066a.032.032,0,0,0,.033-.033c.033-.033,0-.066-.033-.033Zm9.2,4.173-.033.033h0a.032.032,0,0,0,.033.033l.263.131-.2.1h0a.511.511,0,0,0-.2-.263.77.77,0,0,0-.657-.033l-.033.033h0a.032.032,0,0,0,.033.033l.033.033-.1.066-.033.033h0c-.066-.1-.2-.329-.2-.329,0-.033-.033-.033-.066-.033l-.033.033h0a1.152,1.152,0,0,1-.46.2l-.394-.263h-.164c-.066.033-.066.033-.066.066v.033l-.69-.1V16.54a.032.032,0,0,0-.033-.033h-.1a.032.032,0,0,0-.033.033h0l-.427-.066h.066a.032.032,0,0,0,.033-.033h0a.032.032,0,0,0-.033-.033h-.1a.032.032,0,0,0-.033.033h0a.032.032,0,0,0,.033.033l-.131-.033c-.033,0-.033,0-.033.033v.066l.033.033h-.2c-.033,0-.033,0-.033.033h0v.033l.033.033a1.6,1.6,0,0,1-.394-.033h0v-.033l-.033-.1a.032.032,0,0,0-.033-.033h-.033l-.066.066v.1h-.033l-.164-.033.066-.066v-.033h0l-.033-.033-.2-.033h0l.066-.066v-.033a.032.032,0,0,0-.033-.033h-.131c-.033,0-.033,0-.033.033v.033l.1.066-.394-.033c-.033,0-.033,0-.033.033s-.033.033-.066.033l-.2.1-.131-.2-.033-.033h-.1a.032.032,0,0,0-.033.033v.033h0l.033.066v.033c0,.033.033.066.1.131a.968.968,0,0,1-.427-.164,1.108,1.108,0,0,0-.559-.164c-.033,0-.033,0-.033.033h0c0,.033,0,.033.033.033h.033a.371.371,0,0,1-.361-.1h-.066l-.033.033-.033.033h0l-.3-.131h0v-.066l-.066-.1h-.066c-.033,0-.033.033-.033.066v.066l-.329-.131h-.033L372,16.08v.033l-.033-.033c-.066-.066-.131-.131-.2-.131l-.1.1-.263-.131h.066c.033,0,.033,0,.033-.033h0a.032.032,0,0,0-.033-.033h-.066c-.033,0-.033.033-.033.066h0l-.23-.1h-.033s-.033.033,0,.033c.066.394.854.591,1.479.756a2.776,2.776,0,0,1,.559.164h.033l.1-.066v-.033h0v-.033a14.631,14.631,0,0,0,4.206.756.032.032,0,0,0,.033-.033h0a.032.032,0,0,0-.033-.033h0a2.484,2.484,0,0,1,1.38.23,4.192,4.192,0,0,0,.92.23h.033v-.066c0-.033,0-.033-.033-.033l-.066-.033a.657.657,0,0,1,.427.066.634.634,0,0,0,.329.1h.033v-.033h0l-.033-.066c.821.164,3.023.756,3.351,1.183h.066c.033,0,.033-.033.066-.033.23.164.427.329.624.493a2.625,2.625,0,0,0,.92.657v.066c0,.033,0,.033.033.033h-.066a.032.032,0,0,0-.033.033v.066a.032.032,0,0,0,.033.033.509.509,0,0,1,.263.361.032.032,0,0,0,.033.033h.131c.033,0,.033,0,.066-.033h0v.033l-.033.1h0a.032.032,0,0,0,.033.033l.23.131h.1a.144.144,0,0,0,.033.1l.033.033.131.033h.033l.033-.033v-.033l.1-.526c0-.033,0-.033-.033-.033h-.066v-.164c0-.033-.033-.033-.066-.033a.032.032,0,0,0-.033.033,4.1,4.1,0,0,0-.493-.92l-.329-.493h0l-.066-.033h-.033a.032.032,0,0,0-.033.033.144.144,0,0,0-.033.1l-.033-.2a.032.032,0,0,0-.033-.033h-.033c-.033.033-.131,0-.263-.066l-.066-.033.033-.2h0v-.033h-.033l-.066.033-.033-.033-.066-.033c-.1-.066-1.084-.887-1.38-.756l-.1.1-.1-.066v.066h.033a.032.032,0,0,0,.033-.033l-.033-.1a.032.032,0,0,0-.033-.033h-.1c-.033,0-.033,0-.033.033v.033h0c-.1-.033-.263-.066-.394-.1-.427-.131-.854-.263-1.019-.1-.033,0-.066-.066-.131-.131l.164.066h.033l.033-.033V17.3c0-.033,0-.033-.033-.033l-.164-.033c-.033,0-.033,0-.066.033V17.3l-.164-.131h-.23a.946.946,0,0,1-.427-.033h-.066v-.1l.2.033c.033,0,.033,0,.033-.033V17c-.164-.263-.821-.263-.92-.23Zm-5.849-.3Zm4.633.2Zm.329.361Zm.493.1-.427-.1.164-.131.263.23Zm-7.82-.2V17l.1.1h.033l.1.033c.033,0,.033,0,.066-.033v-.066l-.2-.131a.121.121,0,0,1-.1.033Zm.559-3.779a.032.032,0,0,0-.033.033h0a.032.032,0,0,0,.033.033h.066c.033,0,.033,0,.033-.033h0a.032.032,0,0,0-.033-.033h-.066Zm2.3,1.15H374.6v.033a.032.032,0,0,0,.033.033l.1.066h.066V14.4a.032.032,0,0,0-.033-.033Zm11.4,7.393h0v.066l.131.1h.066V21.8l-.131-.1Zm-5.783-6.276Zm-7.031,1.741a.032.032,0,0,0-.033-.033h-.1l-.033-.033h-.1a.032.032,0,0,0-.033.033l.033.033h.033l.033.033h.066a.032.032,0,0,0,.033.033h.1a.032.032,0,0,0,.033-.033l-.033-.033Zm11.829,1.577.066.033c.033,0,.033,0,.066-.033v-.066l-.066-.033c-.033,0-.033,0-.066.033h0a.046.046,0,0,0,0,.066Zm-.46,7.13c0,.033.033.033.066.033l.46-.164a.032.032,0,0,0,.033-.033h0a.032.032,0,0,0-.033-.033h-.2l-.3.164a.032.032,0,0,0-.033.033Zm0-.2h-.1a.032.032,0,0,0-.033.033h0c0,.033,0,.033.033.033h.1a.032.032,0,0,0,.033-.033c.033,0,0-.033-.033-.033Zm3.746-3.351-.23-.329-.033-.033c-.46-.033-.887-.033-1.38-.033V21.9c0-.033,0-.033-.033-.033l-.131-.066a.032.032,0,0,1,.033.033h0c0,.033-.033.033-.066.033h0l.1.033h-.329c-.033,0-.033,0-.033.033h0c0,.033,0,.033.033.033l.1.033a2.982,2.982,0,0,1-1.314-.1l.033-.066h0V21.8l-.033-.033-.3-.033s-.033-.033,0-.033h0a.032.032,0,0,1,.033-.033h0l-.23-.033h0a.032.032,0,0,0-.033.033h0a.032.032,0,0,0,.033.033h.066a2.654,2.654,0,0,0-1.019.164l-.164.033c-.1-.131-.2-.3-.427-.23a.032.032,0,0,0-.033.033h0v.033h.033l-.033.033-.033.033h0a.032.032,0,0,0,.033.033l.2.1a3.148,3.148,0,0,1-1.216-.3l-.427-.131c-.033,0-.033,0-.066.033h0v.033a.032.032,0,0,0,.033.033l.1.066a.848.848,0,0,1-.69-.1H380.9a1.634,1.634,0,0,1-.69-.033h0v-.066l-.1-.1v.066h-.066l.066.066a2.728,2.728,0,0,1-.69-.2h-.033a.032.032,0,0,0-.033.033l-.033.066a.807.807,0,0,0-.493-.164H378.8v.033h0v.066a.209.209,0,0,1-.2,0,.033.033,0,1,0,0-.066h-.066a.032.032,0,0,0,.033-.033h0c0-.033,0-.033-.033-.033h0l-.2-.033c-.033,0-.033,0-.033.033h0c-.033,0-.066-.033-.1-.033h-.033l-.131.1h-.033l.033-.033v-.033c0-.033,0-.033-.033-.033l-.164-.033h-.033v.033l.033.033c.033.033.033.033.066.033l-.033.033a.032.032,0,0,0,.033.033h.066c0,.033,0,.033.033.033l.657.164a11.139,11.139,0,0,0,2.826.46c.033,0,.033,0,.033-.033h0c0-.033,0-.033-.033-.033l-.066-.033a1.152,1.152,0,0,1,.46.2l.164.066a5.3,5.3,0,0,0,2.07.131c.263,0,.493-.033.657-.033l1.281.164,1.249.131a4.253,4.253,0,0,1-2.07,1.413,1.182,1.182,0,0,1-.361.066.669.669,0,0,0-.493.2v.066s.033.033.033,0l.164-.033c-.2.23-.821.263-1.084.3h-.131c-.033,0-.033,0-.033.033h0v.033l.033.033-.657.033h0c-1.314.591-4.206.361-5.06-.657h-.033l-.033.033v.1a6.038,6.038,0,0,1-2.333-2.3h-.033a.032.032,0,0,0-.033.033h0a.467.467,0,0,1-.066-.2v-.033h.066l.033-.033v-.066a1.983,1.983,0,0,0-.2-.624l-.1-.3h0l1.347-.329a.032.032,0,0,0,.033-.033h0V20.22c0-.033-.033-.033-.066-.033v-.033h0a.032.032,0,0,1,.033.033l.033.033.066-.033.033-.033h0v.2a.032.032,0,0,0,.033.033h.033l.591-.361.033-.033-.033-.1v-.033h0a.032.032,0,0,0-.033-.033h.361a.032.032,0,0,0,.033-.033v-.066l-.1-.1.361.131-.2.033a.032.032,0,0,0-.033.033h0c0,.033,0,.033.033.033h.066c0,.033,0,.033.033.033l.23.066c.033,0,.033,0,.033-.033h0l.23.033.263.066h-.033a.033.033,0,0,0,0,.066h.066a.032.032,0,0,0,.033-.033h0a17.732,17.732,0,0,0,1.906.329,12.549,12.549,0,0,1,1.873.361h-.2l-.23-.033c-.033,0-.033,0-.033.033h0a.032.032,0,0,0,.033.033l.2.033a3.3,3.3,0,0,0,1.479.2,3.433,3.433,0,0,1,1.413.2l-.1.066-.033.033h0a.032.032,0,0,0,.033.033l.559-.066h.066c.033,0,.033,0,.033-.033h0l.066-.756c0-.033,0-.033-.033-.033a4.165,4.165,0,0,1-.756-.394,3.926,3.926,0,0,0-1.15-.493c-.033,0-.033,0-.033.033h0a.032.032,0,0,0,.033.033l.69.427a3.761,3.761,0,0,1-1.183-.493,6.047,6.047,0,0,0-1.807-.69c-.033,0-.033,0-.033.033h0v.033l.131.1-.361-.066h0a3.316,3.316,0,0,1-.493-.23.032.032,0,0,0,.033-.033h0a.032.032,0,0,0-.033-.033l-.329-.2h-.066c-.2.263-1.117-.1-1.84-.361a4.086,4.086,0,0,0-1.019-.329h-.033l-.394.164-2.4-.591c-.033,0-.033,0-.033.033h0l-.3-.066c0-.033,0-.033-.033-.033l-.164-.033c-.033,0-.033,0-.066.033,0,.033,0,.033.033.066l.164.066.066.033a1.167,1.167,0,0,1-.329-.066h.033l.033-.033h0a.032.032,0,0,0-.033-.033l-.92-.1V17.2c0-.033,0-.033-.033-.033l-.263-.066c-.033,0-.033,0-.033.033h0c0,.033,0,.033.033.066l-.493-.066c-.033,0-.033,0-.033.033h0c0,.033,0,.033.033.033l.23.066a7.15,7.15,0,0,1-2.366-.394h.033a.032.032,0,0,0,.033-.033h0c0-.033,0-.033-.033-.033l-.526-.131a.032.032,0,0,0,.033-.033h0a.032.032,0,0,0-.033-.033l-1.38-.066c-.033,0-.033,0-.033.033h0v.033c-.164,0-.92.066-.953.066l-.131-.1a1.037,1.037,0,0,0-.624-.23c-.033,0-.033,0-.033.033h0c0,.033,0,.033.033.033h0l-.066.033a.032.032,0,0,0-.033.033h0c0,.033,0,.033.033.033l.493.164a4.162,4.162,0,0,1-1.544-.3,3.685,3.685,0,0,0-1.577-.3.032.032,0,0,0-.033.033h0c0,.033,0,.033.033.033l.164.066a19.593,19.593,0,0,1-3.91-.493h-.033v.033h0c.066.164.46.23.657.3a1.923,1.923,0,0,1-.723-.164,2.357,2.357,0,0,0-.953-.2l-.033.033h0v.033l-.559-.066v-.033h0c0-.033,0-.033-.033-.033h0l-.263-.033c-.033,0-.033,0-.033.033h0l-.2-.033-.033-.033-.164-.033c-.033,0-.033,0-.066.033,0,.033,0,.033.033.066l.1.033c-.033.033-.066.033-.23.033a.032.032,0,0,0,.033-.033c0-.033,0-.033-.033-.033l-.3-.066h-.033l-.066.066v.066h.3a.032.032,0,0,0-.033.033c0,.033,0,.033.033.033a2.554,2.554,0,0,0,.986.131,2.853,2.853,0,0,1,.756.033,27.6,27.6,0,0,0,4.633.657c.033,0,.033,0,.033-.033h0c0-.033,0-.033-.033-.033l-.1-.033c.559.066,1.61.3,2.366.46l.92.2a10.746,10.746,0,0,0,1.446.131,7.689,7.689,0,0,1,1.249.1c.92.131,1.873.329,2.76.526l1.15.263a7.116,7.116,0,0,0,.821.131h.033a1.37,1.37,0,0,1,.066.2c-.131,0-2.136-.427-2.136-.427a12.112,12.112,0,0,0-2.661-.2,16.928,16.928,0,0,1-1.939-.1c-.033,0-.033,0-.066.033h0c0,.033,0,.033.033.033l.131.033a1.472,1.472,0,0,1-.756,0c.033,0,.033-.033.066-.033l.033-.033h0a.032.032,0,0,0-.033-.033l-1.676.164h0q-.1.049-.1.1c-.033,0-.066.033-.1.033a.032.032,0,0,0-.033.033c0,.033,0,.033.033.033l.164.033c-.1.033-.23.033-.329.066a1.359,1.359,0,0,0-.624.164l-.033.033h0l.033.033h0l-.23.033h-.033v.033h0v.033h-.033l-.033.033h0a.032.032,0,0,0,.033.033l1.347.131c.033,0,.033,0,.033-.033h0v-.033h.427c.033,0,.033,0,.033-.033.1-.2,1.446-.1,2.431-.033a5.641,5.641,0,0,0,1.906,0v-.033h0v-.033l-.066-.066a.355.355,0,0,1,.23.1l.2.1a2.487,2.487,0,0,0,.493-.033,1.473,1.473,0,0,1,.756,0h-.066a.032.032,0,0,0-.033.033h0c0,.033,0,.033.033.033l1.906.394c.033,0,.033,0,.033-.033h0l.066.033h0a2.427,2.427,0,0,0,1.084.164,3.542,3.542,0,0,1,1.183.131,1.575,1.575,0,0,1-.657.23l-.361.066a.032.032,0,0,0-.033.033h0v.033l.033.066-.164-.066c-.033,0-.033,0-.033.033v.066h-.066l-.066.033-.131.066v-.131h0v-.033h-.033a11.473,11.473,0,0,1-1.84-.033h-.033l-.033.033v.033h0l.066.131-.1-.033.066-.164h0v-.033h-.066a3.992,3.992,0,0,1-1.577.131h.1a.032.032,0,0,0,.033-.033h0a.032.032,0,0,0-.033-.033h0l-.2.033a.032.032,0,0,0-.033.033h0c-.3-.033-.591-.066-.92-.1v-.131a.327.327,0,0,0,.131.033c.033,0,.033,0,.033-.033V19.6c-.131-.164-.657-.164-.887-.164-.033,0-.033,0-.033.033h0a.032.032,0,0,0,.033.033l.23.131-.2.1a.681.681,0,0,0-.854-.3l-.033.033h0a.032.032,0,0,0,.033.033l.1.033-.131-.033h-.033s-.033.033,0,.033v.2h0l-.2-.394a.032.032,0,0,0-.033-.033h-.033l-.427.2-.559-.329h-.066l-.131.164a4.143,4.143,0,0,0-.92-.164,2.261,2.261,0,0,1-.427-.066h0l.033-.033c0-.033,0-.033-.033-.033l-.1-.066h-.033v.1l-.164-.033h0L365.3,19v-.033l-.066-.1c0-.033-.033-.033-.066-.033h0l-.033.033v.033l.066.1a.033.033,0,0,1,0,.066v.066c.033.033.066.033.066.066a1.322,1.322,0,0,1-.789-.164l.066-.066v-.033h0a.032.032,0,0,0-.033-.033c-.559-.131-.657-.1-.953.066h-.033l-.131-.23-.033-.033h-.066a.032.032,0,0,0-.033.033h0v.033h-.066v-.033l-.1-.1h-.066v.066l.066.066h0l.066.033h.033v.033l.066.066-.821-.263h-.066v.066l.033.066a.289.289,0,0,0-.23.033l-.164-.131h-.033l-.1.066h0l-.329-.131h.066v-.066l-.1-.1h-.066v.066h0l.033.066v.033l.066.033-.3-.1h-.1a.032.032,0,0,0-.033.033h0a.451.451,0,0,0-.263-.164h-.033l-.033.033v.1l-.23-.1h.033a.032.032,0,0,0,.033-.033h0a.032.032,0,0,0-.033-.033h.033c-.033,0-.033,0-.033.033a.032.032,0,0,0-.033-.033l-.066-.033c-.033,0-.033,0-.066.033v.033h0l-.066-.066h-.033a.032.032,0,0,0-.033.033h0v.066h.131c.033,0,.033,0,.033-.033V18.38h.033v.033l-.066.033a.032.032,0,0,0-.033.033h0v.033a5.808,5.808,0,0,0,2.07.624c.033,0,.033,0,.033-.033h0V19l.263.066a18.23,18.23,0,0,0,4.041.887.032.032,0,0,0,.033-.033h0v-.033h0a4.349,4.349,0,0,1,1.084.263,3.307,3.307,0,0,0,1.281.263h.033v-.066c0-.033,0-.033-.033-.033l-.1-.033a1.012,1.012,0,0,1,.427.1.875.875,0,0,0,.394.1h.033V20.45h0c0-.033,0-.033-.033-.066a1.884,1.884,0,0,1,.46.131,3.642,3.642,0,0,0,.821.164,4.3,4.3,0,0,0,.92,0,6.622,6.622,0,0,1,1.807.066h.033v-.033h0v-.066a.467.467,0,0,1,.2.066.121.121,0,0,0,.1.033l-.033.361h0c0,.033,0,.033.033.033s.033,0,.066-.033a.1.1,0,0,1,.033-.066c0,.066.033.1.033.164V21.6a.661.661,0,0,0,.131.427h.033c.033.033.3.46.526.789a5.77,5.77,0,0,1,.427.69l.033.033h.033a.032.032,0,0,0,.033-.033v-.131c.033.033.033.066.066.131l.066.131v.033l.591.329v.033h-.066c-.033,0-.033,0-.033.033v.066l.821.756h.066v-.033h0c.361.263,1.511.887,1.873.789a.032.032,0,0,0,.033-.033h0v-.033L379,25.51l.164.1a.328.328,0,0,0-.131.164h0v.033h.033l.1.066c.033,0,.033,0,.066-.033h0a.032.032,0,0,0-.033-.033.641.641,0,0,1,.263.033h0a.032.032,0,0,0-.033.033h0c0,.033,0,.033.033.033a4.83,4.83,0,0,0,2.037-.066.032.032,0,0,0,.033.033h.131a.032.032,0,0,0,.033-.033l.164.033c.033,0,.033,0,.033-.033v-.033l-.033-.033.2-.033a3.263,3.263,0,0,1,1.38-.131v.033l-.3.066a.032.032,0,0,0-.033.033h0c0,.033,0,.033.033.033a2.353,2.353,0,0,0,1.446-.427v-.033a.032.032,0,0,0-.033-.033l-.427.066.2-.164a1.319,1.319,0,0,1,.493-.1,1.525,1.525,0,0,0,.953-.329v-.033h0a.032.032,0,0,0-.033-.033l-.066-.033.1-.033a.032.032,0,0,0,.033-.033v-.1h-.033a.436.436,0,0,0-.329.2.472.472,0,0,1-.066.1l-.46.033v-.066a.909.909,0,0,0,.526-.164.984.984,0,0,1,.329-.131l.559.131h.033v-.033h0v-.066l.1-.033h.033c.033,0,.033,0,.033-.033h0a.032.032,0,0,0-.033-.033l-.066-.033a2.127,2.127,0,0,0,.263-.3.454.454,0,0,1,.1-.131l.756-.23h.033l.131-.164h0c.033-.033.493-1.019.559-1.183h0C388.4,22.356,388.4,22.356,388.363,22.323Zm-9.824-.953a.032.032,0,0,0-.033.033h-.033l-.033-.033Zm6.374-.033Zm-3.384-2.1h0l-.263.066c.066,0,.493.23.559.23a6.8,6.8,0,0,1,.723.131h.131a5.238,5.238,0,0,0-1.15-.427Zm-2.431-.066.92.263h.033l1.249.493c-.92-.131-5.881-1.117-4.961-1.347Zm-4.5-.854c-.46-.2.953-.066.756.164a1.949,1.949,0,0,1-.756-.164Zm-5.619,1.643-.427-.1h.131l.033-.033V19.76h0l.263.2Zm15.476,5.881a.032.032,0,0,0,.033.033h.1a.032.032,0,0,0,.033-.033l-.033-.033h-.1a.032.032,0,0,0-.033.033Zm2-.2h-.033l-.033.033h-.033c0-.033.033-.033.033-.066h.033a.032.032,0,0,0,.033-.033h0a.656.656,0,0,0-.329-.263l-.033-.033h-.033l-.1.066h0v-.033H385.9l-.427.23-.033.033.033.2a.032.032,0,0,0,.033.033h.033c.066-.033.131,0,.2.066l.1.033c0,.033.066.493.066.526a3.029,3.029,0,0,0-1.347,1.15h-.033a.2.2,0,0,0,.033-.131c0-.033,0-.033-.033-.033s-.033,0-.033.033l-.066.1v.033h0a.3.3,0,0,0-.164.033l-.033.033-.131.066-.066.033-.066-.033h0c.033,0,.033,0,.066-.033l.033-.033V27.58h-.033l-.394.1a.032.032,0,0,0-.033.033h0a.032.032,0,0,0,.033.033l.164.131a.115.115,0,0,0-.033.066.422.422,0,0,0-.329-.131H383.4l-.164.1-.033.033h0c0,.033,0,.033.033.033l.3.131v.033h-.23v-.066c0-.033,0-.033-.033-.033l-.033-.033h-.066v.066h0a.688.688,0,0,1-.131-.2l-.033-.033a.032.032,0,0,0-.033.033l-.131.263-.3-.164h-.033l-.033.033a1.423,1.423,0,0,0-.033.164l-.723.066a.032.032,0,0,0-.033.033.417.417,0,0,1-.033.2,1.168,1.168,0,0,1-.329-.066.565.565,0,0,0-.394-.066.032.032,0,0,0-.033.033h0V28.4c0,.033,0,.066-.033.066l-.066.066-.1-.164h-.066c-.033,0-.033,0-.033.033h0l-.033-.033h-.066v.066l.1.066h.066c.033.033.033.066.066.1l-.526-.131c-.033,0-.033,0-.066.033v.066l.033.033a.871.871,0,0,1-.756,0h-.066l-.033.033c-.033,0-.033.033-.033.066h0l-.2-.066h-.033L379,28.6h-.033v.066L379,28.7h.033v.1c0,.033,0,.033.033.033a.723.723,0,0,0,.46.066.976.976,0,0,1,.591.131h.066l.066-.066v-.033h0l-.033-.066a4.193,4.193,0,0,0,1.281.033,4.941,4.941,0,0,1,.986,0h.033v-.131c.23,0,1.183,0,1.314-.2V28.5H383.8a.159.159,0,0,1,.23,0h.066l.033-.033.033-.033v-.066a3.1,3.1,0,0,0,2.1-1.413,1.72,1.72,0,0,0,.329-.887,1.311,1.311,0,0,0-.131-.427Zm-.1-.1Zm-2.464,2.07Zm.887,1.183-.131-.066h-.033c-.1.066-.164.131-.263.2a.937.937,0,0,1-.46.263h-.033v.033h0a.249.249,0,0,0,.066.131,11.845,11.845,0,0,1-1.709.854h-.789c-.033,0-.033,0-.033.033h0c0,.033,0,.033.033.033h.033c0,.033,0,.033-.033.066-.1,0-.1,0-.131-.033l-.033-.033H381.2l-.066.033-.033.033h0v.066a5.563,5.563,0,0,0-2.563.624V31a.032.032,0,0,0-.033-.033h-.033c-.3.164-.329.69-.329.854v.1c0,.033,0,.033.033.033.329.066.789-.329,1.051-.624.329.329,1.051-.033,1.479-.23v.131h.033l.427-.131h0v.1l-.033.1h0v.033h.033l.164-.033a.149.149,0,0,1,.164,0c.033,0,.033,0,.066-.033l.033-.1h0a.032.032,0,0,0-.033-.033c-.033-.033-.1-.033-.131-.066h0l.033-.033c.066.033.263.164.263.164h.066l.164-.1V31.03c0-.033-.033-.033-.033-.066h0l.1.131.033.033a.032.032,0,0,0,.033-.033s.066-.2.1-.263l.3.131h.033l.033-.033a.661.661,0,0,1,.361-.3.27.27,0,0,0,.2-.131l.033-.1V30.34l-.033-.066h0c.033,0,.1-.033.131-.033h0l.066.1v-.033a.032.032,0,0,1,.033-.033h.066l-.033-.066h.066a.909.909,0,0,0,.3-.033l.033-.033h0v-.164a.121.121,0,0,1,.033-.1l.131.1h.066v-.033h0a.328.328,0,0,0-.131-.164l.427-.1a.032.032,0,0,0,.033-.033h0v-.033l-.033-.033h0c0-.164.329-.46.526-.657l.066-.066v-.033h0c-.066.033-.066,0-.1-.033.033,0,.033-.033,0,0Zm-2.661,2.661h0l-.2-.033h-.1v.033h0v.066a.3.3,0,0,0-.23.1.251.251,0,0,1-.164.066H381.4v.033h0l.033.033c0,.033.033.033.033.066l-.164.066c-.526.2-1.051.394-1.15.624h-.591c-.033,0-.033,0-.033.033h0a.032.032,0,0,0,.033.033l.066.033a.032.032,0,0,1-.033.033l-.131-.066h-.066l-.033.033-.033.033h0v.033h0c-.493-.066-1.117.46-1.479.821a1.807,1.807,0,0,1-.3.23.032.032,0,0,0-.033.033,1,1,0,0,0,.164.756l.066.1.033.033h.2a.032.032,0,0,0,.033-.033v-.066a.121.121,0,0,1-.033-.1.234.234,0,0,1,.1-.2,1.012,1.012,0,0,0,.164-.394,1.027,1.027,0,0,0,.986-.526l.164.1h.033a.032.032,0,0,0,.033-.033l.033-.066a.115.115,0,0,0,.066-.033h0v.2a.032.032,0,0,0,.033.033h.263c.033,0,.033,0,.033-.033l.033-.066h.066l.1-.1V33.2l.1.1h.066l.066-.23.164.1h.1v-.033h0L380.543,33a.689.689,0,0,0,.361-.131.121.121,0,0,0,.033-.1h0v-.033h0v-.066h0q.049-.1.1-.1a.3.3,0,0,1,.164.1h.033l.1-.033.033-.033s.033-.2.033-.263l.066.066h.066v-.033h0a.045.045,0,0,0,.066,0h0v-.066l-.066-.066h-.066c-.033-.033-.033-.066-.066-.066a2.548,2.548,0,0,0,.3-.033.032.032,0,0,0,.033-.033v-.033a.121.121,0,0,1-.033-.1h.066c.033,0,.033,0,.033-.033v-.066l-.033-.033.131-.066a.645.645,0,0,0,.3-.3v-.066c-.066.1-.033.1-.066.033Zm-1.676,2.76c-.033,0-.033,0-.033.033l-.066.23c0,.033,0,.033.033.066h.066a.331.331,0,0,0,.1-.263c-.066-.033-.066-.066-.1-.066Zm4.5-5.684h-.1l-.066.066v.033l-.033.066c0,.033,0,.033.033.066h.066l.131-.131V28.6c0-.066-.033-.066-.033-.066Zm-24.38-10.12c.033,0,.033,0,.066-.033h0c0-.033,0-.033-.033-.033l-.1-.033c-.033,0-.033,0-.066.033h0c0,.033,0,.033.033.033Zm21.719,12.913-.1-.033c-.033,0-.033,0-.066.033h0l-.033.1v.033h.066l.1-.066.033-.033v-.033Zm-2.3-9.989c-.033,0-.033,0-.066.033h0c0,.033,0,.033.033.033l.131.066c.033,0,.033,0,.066-.033h0c0-.033,0-.033-.033-.033Zm.263,13.274-.164-.033h-.033l-.263.2c-.263.23-.624.526-.887.493h-.033V35.3h0v.066a.032.032,0,0,0,.033.033,7.071,7.071,0,0,1-2.5.066l-.394-.033a.032.032,0,0,0-.033.033V35.5h0l.033.033c-.789-.033-1.643-.066-1.906.69v.033h.066l.066-.033a.381.381,0,0,1-.3.329l-.033.033v.033a.482.482,0,0,1,.066.131.585.585,0,0,0-.263.361v.033h0v-.033h-.066c-.033,0-.033,0-.033.033-.033.131-.2.427-.329.756a6.08,6.08,0,0,0-.559,1.314h0a1.019,1.019,0,0,0-.3.723,1.239,1.239,0,0,1-.23.69v.066l.131.131-.066.066h-.1v.131a.555.555,0,0,0,.1.329c.033.033.1.066.131.1l-.066.033v.033h0v.033l.164.131v.033a.115.115,0,0,0,.066.033.032.032,0,0,0,.033-.033h0l.066.164a.032.032,0,0,0,.033.033h.033l.23-.2v-.394c0-.1-.033-.2-.033-.329a.964.964,0,0,1,.131-.526v-.066l-.033-.033c0-.033-.033-.033-.066-.033h0l.033-.033a.121.121,0,0,0,.033-.1V40l.1.033h.033V40c.3-.723.591-1.446.953-2.136l.033-.033V37.8l.2-.427.1-.2.1.033-.066.1v.066h.066a1.484,1.484,0,0,0,.361-.559c0-.033,0-.033-.033-.033h-.033s-.1.066-.164.1v-.066c.033-.066.1-.1.131-.131a.719.719,0,0,0,.3-.329h0V36.32h-.033l-.066.033-.033-.131h0l.2.164h.033a.032.032,0,0,0,.033-.033l.2-.23.361.23h.033a.032.032,0,0,0,.033-.033l.033-.131.821.1v.033c0,.033,0,.033.033.033h.1c.033,0,.033,0,.033-.033h.033c.033,0,.033,0,.033-.033h0v-.066a.121.121,0,0,0,.1-.033.032.032,0,0,0,.033-.033h0v-.033l-.033-.033a.723.723,0,0,1,.263.033v.1a.032.032,0,0,0,.033.033l.033-.033v-.1l.1.033.2.066v.033a.032.032,0,0,0,.033.033h.066c.033,0,.033,0,.033-.033h0a.3.3,0,0,0,.23-.1V36.09h0l.164-.131c0,.033.1.131.1.131l.033.033.1-.033a.032.032,0,0,0,.033-.033h0l.033.033h.1c.033,0,.033,0,.033-.033h0a.032.032,0,0,0-.033-.033l-.1-.066h-.066v.033h-.033c0-.066-.033-.066-.1-.1l.756-.033a.032.032,0,0,0,.033-.033h0c0-.033,0-.033-.033-.033H379c.066-.033.1-.066.1-.131l.164.033h.033v-.033h0V35.6h0a2.877,2.877,0,0,0,.789-.624l.164-.164v-.033h0a.062.062,0,0,0,0-.1c.066-.1.033-.1,0-.066Zm-7.557,4.666Zm.394.756Zm5.159-19.944a.032.032,0,0,0-.033-.033h-.1a.032.032,0,0,0-.033.033h0c0,.033,0,.033.033.033h.1c.033,0,.033,0,.033-.033Zm0,1.15c0,.033.033.033.066.033l.1-.033a.032.032,0,0,0,.033-.033c0-.033,0-.033-.033-.033l-.1-.033h-.033v.033Zm-.92.131c-.033,0-.033,0-.066.033h0c0,.033,0,.033.033.033l.131.066c.033,0,.033,0,.066-.033h0c0-.033,0-.033-.033-.033Zm.263-.033a.032.032,0,0,0-.033-.033h-.033v-.033c0-.033,0-.033-.033-.033h0l-.657-.066c-.033,0-.033,0-.033.033h0c0,.033,0,.033.033.033l.624.066h0a.032.032,0,0,0,.033.033h.1c-.033.033-.033,0,0,0Zm-13.077-2.366c.033,0,.033,0,.066-.033h0c0-.033,0-.033-.033-.033l-.131-.033c-.033,0-.033,0-.066.033h0c0,.033,0,.033.033.033Zm.427-.789a.032.032,0,0,0,.033-.033h0a.032.032,0,0,0-.033-.033h-.1c-.033,0-.033,0-.033.033h0c0,.033,0,.033.033.033h.1Zm-10.284-3.811c0,.033.033.033.066.033l.066-.033a.032.032,0,0,0,.033-.033c0-.033,0-.033-.033-.033l-.1-.033h-.033v.1Zm16.757,4.436h0l.2.066h.033v-.066a.032.032,0,0,0-.033-.033h-.131a.032.032,0,0,0-.033-.033h-.1a.032.032,0,0,0-.033.033.072.072,0,0,0,.1.033Zm5.684,17.414c0-.033-.033-.033-.066-.033a.032.032,0,0,0-.033.033h0l.033.1c0,.033.033.033.066.033l.033-.033h0ZM361.026,15.949h0l.2.033c.033,0,.033,0,.033-.033s0-.033-.033-.066l-.131-.1h-.033l-.131-.033a.032.032,0,0,0-.033-.033h-.1a.032.032,0,0,0-.033.033h0a.032.032,0,0,0,.033.033h.1c.033,0,.033,0,.033-.033h0c0,.033-.033.033-.066.033l.131.033h0c0,.066,0,.1.033.131Zm9.693,1.183.1.033h.033a.032.032,0,0,0,.033-.033l.033-.1V17h-.164v.033c-.066.033-.066.066-.033.1Zm-14.49-1.38H356.2a.032.032,0,0,0-.033-.033h-.131c-.033,0-.033,0-.033.033h0a.032.032,0,0,0,.033.033h.066a.032.032,0,0,0,.033.033h.1a.033.033,0,0,0,0-.066Zm-2.1-1.38h0c0-.033,0-.033-.033-.033l-.427-.164H353.6v.066a.53.53,0,0,0,.427.2h0a.032.032,0,0,0,.033.033l.1.066a.046.046,0,0,0,.066,0h0V14.5a.032.032,0,0,0-.033-.033Zm2.366,1.314-.23-.033h-.033c0-.033,0-.033-.033-.033l-1.117-.23c-.033,0-.033,0-.033.033v.033c.23.263.953.263,1.15.263h0c0,.033,0,.033.033.033l.23.066c.033,0,.033,0,.066-.033h0v-.033l-.033-.066Zm1.183-.23c-.033,0-.033,0-.033.033h0c0,.033,0,.033.033.033l.263.066h.033v-.066c0-.033,0-.033-.033-.033Zm.164-.361a5.325,5.325,0,0,0,.657.1,1.566,1.566,0,0,0,.657-.131l.1-.033A4.41,4.41,0,0,1,360.566,15a3.7,3.7,0,0,0,1.347-.033.032.032,0,0,0,.033-.033h0V14.9l-.033-.033a3.205,3.205,0,0,1,1.577-.033,2.272,2.272,0,0,0,1.15,0,.032.032,0,0,0,.033-.033h0c0-.033,0-.033-.033-.033h-.066a1.079,1.079,0,0,1,.559.033c.1.033.164.033.263.066h.033v-.033h0v-.1c.493.033.953.066,1.413.066a8.4,8.4,0,0,1,2.924.427h.066v-.131l2.267.657h.033c.033,0,.066-.033.1-.066.1.066.131.1.131.2v.066a.032.032,0,0,0,.033.033l.2.033a1.923,1.923,0,0,1,.427.066h.066l.033-.066a.115.115,0,0,0,.033-.066h0l.1.1h.033l.329-.066a.032.032,0,0,0,.033-.033v-.033h0l-.033-.066c.1.033.131.033.23-.066h0v-.066l-.361-.394h-.066a.032.032,0,0,1-.033.033l-.164-.131h-.066v.033h0v.033l-1.676-.657h-.033s-.033.033,0,.033h0v.066l-.164-.131c-.033-.033-.033-.033-.066,0h0c-.033.066-.2.066-.361.033h0l.066-.066v-.033h0l-.033-.033a6.622,6.622,0,0,1-.756-.23,3.819,3.819,0,0,0-1.38-.263h-.033l-.033.033v.066l.033.1-.131-.033c.033-.066.1-.164.1-.164v-.066h0a.032.032,0,0,0-.033-.033h-.131a.033.033,0,0,0,0,.066h0a.144.144,0,0,1-.164-.033v-.033h0v-.033h-.033c-.657.066-1.019.1-1.38.1h-.033l-.263-.033a.032.032,0,0,1,.033.033H365.56c0-.033-.033-.066-.033-.1l.23-.033c.033,0,.033,0,.033-.033h0V13.78l-.033-.033h-.033l-.69.066L365,13.747h-.066l-.23.1a.032.032,0,0,0-.033.033h0c0,.033,0,.033.033.033l.263.1-.2.131c-.164-.329-.591-.23-.953-.164h-.033a.032.032,0,0,0-.033.033h0v.033l.066.066h-.066a.032.032,0,0,0-.033.033l-.033.066v.066l.033.033h-.066l-.2-.3h-.066l-.559.3-.624-.2h-.033l-.033.033a1.423,1.423,0,0,0-.033.164c-.066,0-1.709.1-1.709.1a.032.032,0,0,0-.033.033h0v.033l-.2.033a.032.032,0,0,0-.033.033h0v.033a.032.032,0,0,0,.033.033l.1.033a1.3,1.3,0,0,1-.789-.033,1.856,1.856,0,0,0-.854-.066.032.032,0,0,0-.033.033V14.6h0v.033c0,.033,0,.033-.066.033l-.2.1-.1-.1a.373.373,0,0,0-.263-.1.032.032,0,0,0-.033.033v.1l-.033.033v.033h0a.032.032,0,0,0,.033.033l.164.1a2.656,2.656,0,0,1-.887-.164l-.263-.066c-.033,0-.033,0-.033.033v.033a.032.032,0,0,0,.033.033l.066.066a.452.452,0,0,1-.526-.066h-.033l-.033.033v-.033l-.361-.066h0v-.033l-.1-.1H355.9v.066l.033.033-.46-.1h-.033v.1c-.033-.033-.23-.164-.23-.164h-.066l-.033.033c-.033,0-.033.033-.033.066v.033a1.121,1.121,0,0,1-.624-.23h-.066v.1c.263.394,1.906.657,2.563.657.033,0,.033,0,.033-.033s.033-.033.033-.066V15a7,7,0,0,1,.821.1Zm6.144-.854.066-.131.329.1h0v.066l-.394-.033Zm6.9,1.61h0c0-.033,0-.066-.033-.066l-.329-.131c-.033,0-.033,0-.066.033h0c0,.033,0,.033.033.033l.329.131c.033.033.033,0,.066,0Zm7.163,11.171h-.033v.033l.033.1a.032.032,0,0,0,.033.033h.033l.1-.066.033-.033v-.033c0-.033,0-.033-.033-.033Zm-.624.033-.033.033v.033l.066.1h.066l.033-.033v-.033l-.066-.066c0-.066-.033-.066-.066-.033ZM378.9,28.6l-.263-.066c-.033,0-.033,0-.033.033h0c0,.033,0,.033.033.033l.263.066c.033,0,.033,0,.033-.033h0a.032.032,0,0,1-.033-.033Zm-2.694,8.839-.1-.033h-.033v.033l.033.066-.066-.066h-.066a2.008,2.008,0,0,0-.23.46c-.131.3-.3.624-.46.69a.032.032,0,0,0-.033.033v.033q.049.1.1.1c-.066.1-.1.131-.2.131h-.033a2.806,2.806,0,0,0-.591,1.216,2.128,2.128,0,0,1-.559,1.117s-.033.033,0,.033h0v.066c0,.033.033.033.066.033h0a2.364,2.364,0,0,1-.394.69,1.79,1.79,0,0,0-.394.789h0a.032.032,0,0,0,.033.033h.066l.033-.033a.333.333,0,0,1-.131.23.688.688,0,0,0-.131.2v.066l.033.033h.066a9.521,9.521,0,0,0-.92,2.563.909.909,0,0,0-.033.3V47a1.628,1.628,0,0,1-.066.559h0v.033a.032.032,0,0,0,.033.033h.066v.033h-.131v.033h0l.1.427a.032.032,0,0,0,.033.033l.131.033-.066.066v.066l.066.066a1.807,1.807,0,0,1,.23.3l.033.033.164-.033a.032.032,0,0,0,.033-.033h0v-.033c0-.131.033-.23.033-.361a4.047,4.047,0,0,0,.066-.657.542.542,0,0,0-.164-.493l.1-.033.033-.033V47l-.033-.066a.032.032,0,0,0,.033-.033l.033-.1h0c0-.033,0-.033-.033-.033s-.033,0-.033.033h0v.066c0-.033-.033-.066-.033-.1h.066c.033,0,.033,0,.033-.033l.394-1.479.2-.723V44.5h0a5.466,5.466,0,0,0,.164-.69h.131l-.066.066v.033a.032.032,0,0,0,.033.033h.033a.345.345,0,0,0,.164-.3c0-.1,0-.1.066-.1h.033v-.2a.032.032,0,0,0-.033-.033h-.033l-.164.131v-.033a2.159,2.159,0,0,0,.394-.559h0v-.033h-.1c0-.033-.033-.033-.033-.066h.2l.1-.033a.032.032,0,0,0,.033-.033v-.033h0l-.131-.361.329-.2.033-.033v-.033c0-.1,0-.1-.066-.131h-.033c.066-.164.164-.394.263-.591a2.6,2.6,0,0,0,.164-.427h0v-.033h-.033l-.066.033c0-.1.066-.164.1-.263h0l.1.066h.066v-.033a.032.032,0,0,0-.033-.033l-.1-.066h0c0-.033.033-.033.033-.066h.164a.032.032,0,0,0,.033-.033l.066-.1h.066v-.033a.032.032,0,0,0-.033-.033h-.033a.246.246,0,0,0,.033-.164.559.559,0,0,0-.033-.23l-.033-.066.164-.033a.032.032,0,0,0,.033-.033l.033-.1h0v-.033l-.033-.033a.209.209,0,0,0-.2,0h-.066l.493-.526v-.066a.046.046,0,0,0-.066,0l-.033.033a2.1,2.1,0,0,0,.066-.23,1.182,1.182,0,0,1,.361-.69l.033-.033h0l-.033-.066c0-.033-.033-.066-.033-.1s0-.033.033-.066l.066-.066v-.033h.033l.066-.1v-.033C376.239,37.437,376.206,37.437,376.206,37.437Zm-.854,2.727Zm0-.033ZM359.974,18.38l-.361-.1h-.066v.066c.1.131.2.131.394.131.033,0,.033,0,.033-.033A.045.045,0,0,0,359.974,18.38Zm16.3,18.6c-.033,0-.033,0-.033.033l-.066.263c0,.033,0,.033.033.033h.066c.066-.1.131-.164.066-.3-.033,0-.066,0-.066-.033Zm-4.14-8.313h0l.033-.033.591-.789.131-.164v-.033c.066-.1.1-.1.164-.066h0l-.066.033v.033l-.066.131h0v.033s.033.033.033,0h.131l.723-.821v-.066h-.066l-.263.164a.7.7,0,0,1,.1-.23,1.041,1.041,0,0,0,.69-.427,2.127,2.127,0,0,1,.3-.263v-.033h0l-.033-.033H374.4l.1-.1v-.066h-.131l.066-.066.46-.033c.033,0,.033,0,.033-.033h0c0-.033,0-.033-.033-.033h-.033a.032.032,0,0,1,.033-.033,4.7,4.7,0,0,1,.789.526,3.3,3.3,0,0,0,.789.526h.066v-.066l-.033-.033a.115.115,0,0,1,.066.033h0v.066h0v.033l.033.033a1.452,1.452,0,0,1,.526.2h0a.032.032,0,0,0,.033.033l.1.066h.066V27.12a.032.032,0,0,0-.033-.033l-.1-.066h0v-.033h0l.23.033c.033,0,.033,0,.033-.033h0a.032.032,0,0,0-.033-.033l-.033-.033a1.873,1.873,0,0,1,.723.131c.1.033.23.066.329.1l-.066.1v0l.033.033.92.066c.033,0,.033,0,.033-.033h0c0-.033,0-.033-.033-.033l.46-.131a.386.386,0,0,0,.329.2.032.032,0,0,0,.033-.033v-.066a.032.032,0,0,0-.033-.033l.033-.033h0a.032.032,0,0,0-.033-.033l-.131-.066h1.347c.033,0,.033,0,.033-.033h0c0-.033,0-.033-.033-.033l-.066-.033a.912.912,0,0,1,.591-.1c.033,0,.033-.033.066-.033v-.066l.427-.1h0a.032.032,0,0,0,.033.033h.066a.032.032,0,0,0,.033-.033h0a.032.032,0,0,0-.033-.033h0l.953-.23a.032.032,0,0,0,.033-.033h0v-.033a.032.032,0,0,0-.033-.033l.23-.066a.032.032,0,0,0,.033.033h.1a.032.032,0,0,0,.033-.033h0a.032.032,0,0,0-.033-.033l.394-.131a.032.032,0,0,0,.033-.033v-.033h0l-.033-.066c0-.033-.033-.033-.066-.033l-.394.1a13,13,0,0,1-2.464.46H381.2l-.1.1v.033h0c-.1,0-.164-.033-.263-.033a.64.64,0,0,0-.263-.033c-1.709.066-3.056.131-4.173-.591l-.23-.23-.23-.23h-.066l-.033.033h0a1.982,1.982,0,0,1-.624-.756.032.032,0,0,0-.033-.033h-.657A6.254,6.254,0,0,1,373.15,26v.033l-.033.1v.033h.066l.1-.066a1.707,1.707,0,0,1-.624.559l-.164.1-.033.033h0v.033h0a.032.032,0,0,0,.033.033l.1.066a8.193,8.193,0,0,0-1.939,2.4c-.23.361-.46.723-.69,1.051a1.771,1.771,0,0,0-.23.427,1.431,1.431,0,0,1-.329.526v.033h0l.033.033.1.033a10.455,10.455,0,0,1-.526,1.051,9.094,9.094,0,0,0-.723,1.511c0,.033-.033.066-.033.1a.181.181,0,0,0,.1.164h0a.53.53,0,0,0-.131.23h0a.032.032,0,0,0-.033-.033h-.033c-.131.1-.164.46-.164.526v.1a.559.559,0,0,0,.033.23.331.331,0,0,1-.033.1h0a.032.032,0,0,0,.033.033h.066l.033-.033c0,.033-.033.066-.033.131a.3.3,0,0,0-.033.164c0,.033,0,.066.033.066.033.033.066.033.164.033l-.066.2h0v.033h.1v.033l.033.033h.033a10.429,10.429,0,0,0,1.084-2.694v-.033H369.4l-.1.033a1.167,1.167,0,0,0,.131-.3,1.214,1.214,0,0,1,.164-.361l.066.066h.033a.032.032,0,0,0,.033-.033,11.131,11.131,0,0,1,1.15-1.971v-.033l.066-.2v-.033h-.131l.1-.131a1.056,1.056,0,0,1,.1.164h.066c.033,0,.033-.033.033-.066h0v0h0l.033-.1h0v-.033a5.835,5.835,0,0,1,.92-1.479h.033a.032.032,0,0,0,.033-.033h0V28.8l.066-.066Zm2.136-2.629a1.015,1.015,0,0,1-.066.263l-.361.164V26.43c.066-.066.263-.263.427-.394ZM371.014,30.5Zm5.027-6.341h0V24.1l-.1-.1h-.066v.066l.1.1c0,.033,0,.033.033.033s.033,0,.033-.033Zm2.826,3.154-.2-.033a.032.032,0,0,1,.033.033h0a.032.032,0,0,1-.033.033h0l.2.033c.033,0,.033,0,.033-.033h0a.032.032,0,0,0-.033-.033Zm5.126-1.084c-.033,0-.033,0-.066.033l-.033.066v.033h.033l.1-.033a.032.032,0,0,0,.033-.033c0-.033,0-.033-.033-.033Zm-3.746.887c-.033,0-.033,0-.033.033s0,.033.033.033l.2.066h.033v-.066c0-.033,0-.033-.033-.033Z" transform="translate(685.583 856.763)" fill="#005490" fill-rule="evenodd"/>
    <path id="Path_152" data-name="Path 152" d="M12.157,16.986a2.4,2.4,0,0,0-2.464-2.267H4.8a2.393,2.393,0,0,0-2.431,2.267l-.066.591H0V12.419H1.051C1.84,12.254,2.431,10.94,2.431,9V2.2H13.11V12.419h1.413v5.159H12.19ZM5.586,4.927v4.3a4.483,4.483,0,0,1-1.413,3.187H9.331V4.927Z" transform="translate(923 860.523)" fill="#89989f"/>
    <path id="Path_153" data-name="Path 153" d="M48.179,11.991h5.75v2.727H44.4V2.2h9.43V4.927H48.179v2.1h5.454V9.757H48.179Z" transform="translate(893.189 860.523)" fill="#89989f"/>
    <path id="Path_154" data-name="Path 154" d="M86.709,14.719v-6.8l.033-1.906-.559,2.2-1.807,6.506H81.583L79.776,8.213l-.493-2.234.033,1.939v6.8H75.8V2.2h5.191l1.577,5.947.427,2,.427-2L85,2.2h5.224V14.719Z" transform="translate(872.106 860.523)" fill="#89989f"/>
    <path id="Path_155" data-name="Path 155" d="M127.274,1.4c3.844,0,6.374,2.6,6.374,6.571s-2.5,6.506-6.374,6.506-6.374-2.6-6.374-6.539S123.4,1.4,127.274,1.4Zm0,9.989c1.544,0,2.53-1.347,2.53-3.417s-.986-3.483-2.53-3.483-2.563,1.347-2.563,3.483S125.73,11.389,127.274,11.389Z" transform="translate(841.824 861.06)" fill="#89989f"/>
    <path id="Path_156" data-name="Path 156" d="M164.146,14.651H160.4V2.133h3.746V5.944l-.1,1.216.624-1.15,3.22-3.91h4.764l-4.5,4.83,4.929,7.721h-4.731l-2.793-4.994-1.446,1.577v3.417Z" transform="translate(815.303 860.59)" fill="#89989f"/>
    <path id="Path_157" data-name="Path 157" d="M200.779,14.719H197V2.2h5.947a5.24,5.24,0,0,1,3.253.756A4.424,4.424,0,0,1,208.007,6.6c0,2.694-1.774,4.4-4.731,4.4h-2.53Zm0-6.44h1.906a1.545,1.545,0,0,0,1.544-1.709,1.444,1.444,0,0,0-1.479-1.643h-1.971Z" transform="translate(790.729 860.523)" fill="#89989f"/>
    <path id="Path_158" data-name="Path 158" d="M227.346,14.719H223.6L228.2,2.2h3.811l4.534,12.519H232.7l-.591-1.774h-4.173Zm3.943-4.37-1.183-3.713-1.281,3.713Z" transform="translate(772.869 860.523)" fill="#89989f"/>
    <path id="Path_159" data-name="Path 159" d="M262.96,14.719h-3.746V5.026H255.6V2.2h10.941V5.026H262.96Z" transform="translate(751.383 860.523)" fill="#89989f"/>
    <path id="Path_160" data-name="Path 160" d="M296.423,14.719v-7.2l-.789,1.807-3.023,5.389H288.8V2.2h3.746v7l.821-1.741L296.324,2.2h3.844V14.719Z" transform="translate(729.092 860.523)" fill="#89989f"/>
    <path id="Path_161" data-name="Path 161" d="M81,59.906c0,1.873-.92,4.206-5.783,4.206-2.661,0-5.52-1.281-5.52-4.3h3.811c.131,1.117.789,1.479,1.971,1.479,1.084,0,1.709-.526,1.709-1.38,0-.986-.46-1.479-2.267-1.479H73.873v-2h1.249c1.249,0,1.643-.624,1.643-1.314a1.249,1.249,0,0,0-1.38-1.15c-.953,0-1.479.263-1.577,1.084H70.029c.3-3.121,2.464-3.943,5.29-3.943,3.22,0,5.093,1.15,5.093,3.549a2.735,2.735,0,0,1-2.694,2.464C79.59,57.179,81,57.967,81,59.906Z" transform="translate(876.201 827.69)" fill="#89989f"/>
    <path id="Path_162" data-name="Path 162" d="M103.146,64.319H99.4L104,51.8h3.811l4.534,12.519H108.5l-.591-1.774h-4.173Zm3.943-4.4L105.906,56.2l-1.281,3.713Z" transform="translate(856.26 827.22)" fill="#89989f"/>
    <path id="Path_163" data-name="Path 163" d="M153.041,63.977A6.009,6.009,0,0,1,146.7,57.6c0-3.976,2.3-6.7,5.947-6.7,3.187,0,5.816,2,6.046,4.929h-3.68a1.962,1.962,0,0,0-2.136-1.971c-1.873,0-2.3,1.511-2.3,3.713,0,2.1.854,3.351,2.5,3.351,1.183,0,1.807-.723,1.971-1.971h3.779A5.5,5.5,0,0,1,153.041,63.977Z" transform="translate(824.501 827.824)" fill="#89989f"/>
    <path id="Path_164" data-name="Path 164" d="M191.323,64.251v-7.2l-.789,1.807-3.023,5.421H183.7V51.733h3.746V58.7l.821-1.741,2.957-5.257h3.844V64.251Z" transform="translate(799.659 827.287)" fill="#89989f"/>
    <path id="Path_165" data-name="Path 165" d="M223.413,57.32l-2.267,7H217.4L221.869,51.8h3.811l4.4,12.519h-3.844l-2.169-7.064-.3-1.61Z" transform="translate(777.031 827.22)" fill="#89989f"/>
    <path id="Path_166" data-name="Path 166" d="M266.4,64.319h-3.746V58.831h-3.811v5.487H255.1V51.8h3.746v4.337h3.811V51.8H266.4Z" transform="translate(751.719 827.22)" fill="#89989f"/>
    <path id="Path_167" data-name="Path 167" d="M291.946,64.319H288.2L292.8,51.8h3.811l4.534,12.519H297.3l-.591-1.774h-4.173Zm3.943-4.4-1.183-3.68-1.281,3.713h2.464Z" transform="translate(729.494 827.22)" fill="#89989f"/>
    <path id="Path_168" data-name="Path 168" d="M67.139,105.769c3.844,0,4.7,2.629,4.7,4.041a3.891,3.891,0,0,1-3.056,3.877,9.461,9.461,0,0,1-1.939.131H60.6V101.3h9.857v2.464H64.346v2h2.793Zm-2.793,5.323h2.366c1.183,0,1.577-.559,1.577-1.446,0-1.019-.657-1.413-1.676-1.413H64.346Z" transform="translate(882.311 793.984)" fill="#89989f"/>
    <path id="Path_169" data-name="Path 169" d="M98.074,105.409c3.844,0,4.7,2.464,4.7,4.337s-.756,4.173-5.027,4.173H91.5v-9.791H89.4V101.4h5.816v4.041h2.859Zm-2.826,5.75h2.333a1.394,1.394,0,0,0,1.577-1.544c0-1.019-.559-1.446-1.676-1.446H95.216Z" transform="translate(862.974 793.917)" fill="#89989f"/>
    <path id="Path_170" data-name="Path 170" d="M132.713,106.92l-2.267,7H126.7l4.469-12.519h3.811l4.436,12.519h-3.844l-2.2-7.064-.3-1.61Z" transform="translate(837.93 793.917)" fill="#89989f"/>
    <path id="Path_171" data-name="Path 171" d="M168.146,113.919H164.4V101.4h8.641v2.891h-4.9Z" transform="translate(812.617 793.917)" fill="#89989f"/>
    <path id="Path_172" data-name="Path 172" d="M185.446,113.919H181.7l4.6-12.519h3.811l4.534,12.519H190.8l-.591-1.807h-4.14Zm3.943-4.4-1.183-3.713-1.281,3.713Z" transform="translate(801.001 793.917)" fill="#89989f"/>
    <path id="Path_173" data-name="Path 173" d="M223.479,113.919H219.7V101.4h5.947a5.24,5.24,0,0,1,3.253.756,4.424,4.424,0,0,1,1.807,3.647c0,2.694-1.774,4.4-4.731,4.4h-2.53v3.713Zm0-6.473h1.906a1.545,1.545,0,0,0,1.544-1.709,1.444,1.444,0,0,0-1.479-1.643h-1.971Z" transform="translate(775.487 793.917)" fill="#89989f"/>
    <path id="Path_174" data-name="Path 174" d="M261.123,113.986v-7.2l-.789,1.807-3.023,5.421H253.5V101.5h3.779v7l.821-1.741,2.957-5.257H264.9v12.519Z" transform="translate(752.793 793.85)" fill="#89989f"/>
    <path id="Path_175" data-name="Path 175" d="M296.354,113.784v-4.436h-1.347c-1.873,0-2,1.676-2.1,3.22a4.886,4.886,0,0,1-.164,1.183H288.6a9.075,9.075,0,0,0,.624-2.6c.263-1.544.69-2.629,2.431-2.924a3.209,3.209,0,0,1-2.694-3.154c0-2.464,1.643-3.877,5.126-3.877h6.046v12.519Zm0-7.1v-2.694h-2.136c-1.15,0-1.643.493-1.643,1.314,0,.986.789,1.38,1.643,1.38Z" transform="translate(729.226 794.051)" fill="#89989f"/>
  </g>
</svg>
