<svg xmlns="http://www.w3.org/2000/svg" xmlns:xlink="http://www.w3.org/1999/xlink" width="106.11" height="46" viewBox="0 0 106.11 46">
  <defs>
    <linearGradient id="linear-gradient" x1="0.251" y1="-0.024" x2="0.667" y2="1.016" gradientUnits="objectBoundingBox">
      <stop offset="0" stop-color="#faee35"/>
      <stop offset="1" stop-color="#fbb13f"/>
    </linearGradient>
  </defs>
  <g id="ENP_Logo_Gray" transform="translate(-723.176 -851.925)">
    <path id="Path_113" data-name="Path 113" d="M1762.939,948.566h7.171c0-2.272-.766-3.968-3.448-3.968C1764.554,944.6,1763.131,946.24,1762.939,948.566Zm12.59.109c0,2.655-1.067,3.448-2.874,3.448h-9.825c.109,3.257,2.025,4.215,4.6,4.215a11.473,11.473,0,0,0,4.406-.958c.6-.192.766-.164.958.274l1.232,2.764c.191.465.082.657-.356.931a13.267,13.267,0,0,1-6.787,1.724c-6.733,0-9.88-3.175-9.88-10.4,0-6.76,3.722-10.674,9.524-10.674,5.994,0,8.977,3.12,8.977,8.676Z" transform="translate(-993.891 -71.578)" fill="#89989f"/>
    <path id="Path_114" data-name="Path 114" d="M2614.68,978.171h-3.832c-.575,0-.849-.274-.849-.766V958.739c0-.493.274-.739.849-.739h3.832c.739,0,.875.109.875.739v6.568h7.171v-6.568c0-.493.273-.739.848-.739h3.832c.739,0,.848.109.848.739V977.4c0,.657-.109.766-.848.766h-3.832c-.575,0-.848-.274-.848-.766v-7.718h-7.171V977.4C2615.556,978.061,2615.392,978.171,2614.68,978.171Z" transform="translate(-1823.546 -89.085)" fill="#89989f"/>
    <path id="Path_115" data-name="Path 115" d="M3509.708,978.171h-4c-.547,0-.794-.219-.794-.739V962.543h-7.362v14.889c0,.575-.082.739-.794.739h-3.969c-.547,0-.794-.219-.794-.739v-17.27c0-1.232.383-2.162,2.19-2.162h14.2c1.806,0,2.19.931,2.19,2.162v17.27c0,.575-.11.739-.848.739Z" transform="translate(-2681.407 -89.085)" fill="#89989f"/>
    <path id="Path_116" data-name="Path 116" d="M1778.232,1885.4h-.876v.985h.876c.493,0,.575-.3.575-.493,0-.274-.192-.465-.575-.465Zm.027-.3a.4.4,0,0,0,.438-.383.382.382,0,0,0-.411-.383h-.93v.766h.9Zm.931.794a.78.78,0,0,1-.876.766h-1.122c-.137,0-.192-.055-.192-.191v-2.272c0-.137.055-.192.192-.192h1.067c.465,0,.794.219.794.657a.583.583,0,0,1-.356.547v.027a.631.631,0,0,1,.465.657Z" transform="translate(-1013.344 -989.742)" fill="#89989f"/>
    <path id="Path_117" data-name="Path 117" d="M1943.15,1883.3c-.465,0-.739.383-.766.876h1.505C1943.889,1883.712,1943.724,1883.3,1943.15,1883.3Zm1.095.821a.31.31,0,0,1-.328.356h-1.533c0,.712.383.958.849.958a1.394,1.394,0,0,0,.6-.137c.027-.027.082-.027.082.027l.082.164a.052.052,0,0,1-.027.082,1.589,1.589,0,0,1-.766.192c-.739,0-1.2-.41-1.2-1.368,0-.9.493-1.4,1.15-1.4A1,1,0,0,1,1944.244,1884.122Z" transform="translate(-1173.828 -988.77)" fill="#89989f"/>
    <path id="Path_118" data-name="Path 118" d="M2054.232,1885.4h-.876v.985h.876c.493,0,.575-.3.575-.493,0-.274-.192-.465-.575-.465Zm.027-.3a.4.4,0,0,0,.438-.383.382.382,0,0,0-.411-.383h-.93v.766h.9Zm.931.794a.78.78,0,0,1-.876.766h-1.122c-.137,0-.192-.055-.192-.191v-2.272c0-.137.055-.192.192-.192h1.067c.465,0,.794.219.794.657a.583.583,0,0,1-.356.547v.027a.631.631,0,0,1,.465.657Z" transform="translate(-1281.791 -989.742)" fill="#89989f"/>
    <path id="Path_119" data-name="Path 119" d="M2164.985,1882.328a1.608,1.608,0,0,0-.63.109v1.916a1.579,1.579,0,0,0,.63.109c.493,0,.848-.3.848-1.067,0-.794-.328-1.067-.821-1.067Zm.055,2.436a2.211,2.211,0,0,1-.684-.109v1.013c0,.055,0,.055-.055.055h-.219c-.055,0-.082,0-.082-.055v-3.394c0-.027.027-.055.055-.082a2.659,2.659,0,0,1,1.013-.192c.794,0,1.15.575,1.15,1.369C2166.217,1884.135,2165.834,1884.764,2165.04,1884.764Z" transform="translate(-1389.753 -987.797)" fill="#89989f"/>
    <path id="Path_120" data-name="Path 120" d="M2271.177,1882.328c-.575,0-.793.493-.793,1.067,0,.63.191,1.095.793,1.095s.794-.547.794-1.067c0-.547-.164-1.067-.794-1.067Zm-.027,2.436c-.739,0-1.149-.465-1.149-1.368s.493-1.4,1.177-1.4c.739,0,1.15.493,1.15,1.369C2272.326,1884.272,2271.916,1884.764,2271.149,1884.764Z" transform="translate(-1492.851 -987.797)" fill="#89989f"/>
    <path id="Path_121" data-name="Path 121" d="M2385.3,1887.627h-.219c-.055,0-.082,0-.082-.055v-2.381a.171.171,0,0,1,.192-.192H2387a.171.171,0,0,1,.191.192v2.381c0,.055-.027.055-.082.055h-.219c-.055,0-.082,0-.082-.055V1885.3h-1.451v2.271c0,.055-.027.055-.082.055Z" transform="translate(-1604.704 -990.715)" fill="#89989f"/>
    <path id="Path_122" data-name="Path 122" d="M2497.149,1883.3c-.465,0-.739.383-.766.876h1.505C2497.889,1883.712,2497.724,1883.3,2497.149,1883.3Zm1.095.821a.31.31,0,0,1-.328.356h-1.533c0,.712.383.958.848.958a1.394,1.394,0,0,0,.6-.137c.028-.027.082-.027.082.027l.082.164a.052.052,0,0,1-.027.082,1.589,1.589,0,0,1-.766.192c-.739,0-1.2-.41-1.2-1.368,0-.9.493-1.4,1.149-1.4A1,1,0,0,1,2498.244,1884.122Z" transform="translate(-1712.666 -988.77)" fill="#89989f"/>
    <path id="Path_123" data-name="Path 123" d="M2606.328,1847.525a.051.051,0,0,1,0-.082l.082-.082c.055-.027.055-.027.109.027a.889.889,0,0,0,.6.356c.164,0,.329-.055.6-.356.055-.055.055-.027.082-.027l.082.055c.055.055.027.082,0,.109a1,1,0,0,1-.794.493.978.978,0,0,1-.794-.52Zm-.219.821h.219a.073.073,0,0,1,.082.082v2.053h.027c.055-.082.274-.438.328-.52.137-.219.794-1.232.985-1.478.055-.109.082-.137.219-.137h.109a.145.145,0,0,1,.164.164v2.409c0,.055-.027.055-.082.055h-.219c-.055,0-.082,0-.082-.055v-2.053h-.027a4.461,4.461,0,0,1-.3.465l-1.013,1.505a.2.2,0,0,1-.219.137h-.109c-.11,0-.192-.055-.192-.164V1848.4a.073.073,0,0,1,.082-.082Z" transform="translate(-1819.656 -954.089)" fill="#89989f"/>
    <path id="Path_124" data-name="Path 124" d="M2718.834,1885.272c.055-.027.082,0,.082.027l.082.164c.027.027.027.055-.027.082a1.725,1.725,0,0,1-.821.192c-.739,0-1.149-.438-1.149-1.341,0-.876.465-1.4,1.2-1.4a1.715,1.715,0,0,1,.739.164c.027.027.055.055.027.082l-.082.164c-.027.027-.027.055-.082.027a1.272,1.272,0,0,0-.575-.137c-.575,0-.821.52-.821,1.067,0,.575.191,1.04.821,1.04a1.422,1.422,0,0,0,.63-.164Z" transform="translate(-1927.618 -988.77)" fill="#89989f"/>
    <path id="Path_125" data-name="Path 125" d="M2818.3,1886.655h-.219c-.055,0-.082,0-.082-.055v-2.518c0-.055.027-.055.082-.055h.219c.055,0,.082,0,.082.055v1.012h.52c.219,0,.383-.055.493-.383l.191-.657c.028-.055.028-.055.082-.055h.219c.055,0,.055.027.055.082l-.192.657c-.055.219-.137.411-.328.465h0a.591.591,0,0,1,.41.465l.246.876c0,.027,0,.082-.055.082h-.246c-.027,0-.055,0-.082-.055l-.246-.848a.517.517,0,0,0-.52-.383h-.575v1.2c0,.055-.027.055-.082.055Z" transform="translate(-2025.854 -989.742)" fill="#89989f"/>
    <path id="Path_126" data-name="Path 126" d="M2919.109,1883.027h.219a.073.073,0,0,1,.082.082v2.053h.027c.055-.082.274-.438.328-.52.137-.219.794-1.231.985-1.478.055-.109.082-.137.219-.137h.11a.145.145,0,0,1,.164.164v2.408c0,.055-.027.055-.082.055h-.219c-.055,0-.082,0-.082-.055v-2.052h-.027a4.486,4.486,0,0,1-.3.465l-1.013,1.505a.205.205,0,0,1-.219.137h-.109c-.11,0-.192-.055-.192-.164v-2.408a.073.073,0,0,1,.082-.082Z" transform="translate(-2124.089 -988.77)" fill="#89989f"/>
    <path id="Path_127" data-name="Path 127" d="M3026.52,1884.766c0,.274.164.465.548.465h.848v-.9h-.876a.432.432,0,0,0-.492.438Zm1.752-.575v2.408c0,.055-.027.055-.082.055h-.219c-.055,0-.082,0-.082-.055v-1.067h-.712c-.274,0-.465.027-.575.383-.082.219-.137.465-.219.684-.027.055-.055.055-.082.055h-.246a.059.059,0,0,1-.055-.055v-.027l.219-.739a.5.5,0,0,1,.356-.41h0a.621.621,0,0,1-.465-.657.772.772,0,0,1,.848-.766h1.067a.173.173,0,0,1,.192.192Z" transform="translate(-2228.161 -989.742)" fill="#89989f"/>
    <path id="Path_128" data-name="Path 128" d="M3201.3,1887.627h-.219c-.055,0-.082,0-.082-.055v-2.381a.171.171,0,0,1,.191-.192H3203a.171.171,0,0,1,.191.192v2.381c0,.055-.027.055-.082.055h-.246c-.055,0-.082,0-.082-.055V1885.3h-1.451v2.271c0,.055-.027.055-.082.055Z" transform="translate(-2398.371 -990.715)" fill="#89989f"/>
    <path id="Path_129" data-name="Path 129" d="M3312.095,1883.369c-.246,0-.739.055-.739.575,0,.411.328.52.711.52a2.641,2.641,0,0,0,.685-.109v-.985Zm.958,1.231a2.408,2.408,0,0,1-.985.164c-.848,0-1.067-.411-1.067-.821,0-.493.356-.9,1.067-.9h.685v-.137c0-.356-.11-.575-.657-.575a2.977,2.977,0,0,0-.711.109c-.055.027-.082.027-.082-.027l-.055-.192a.1.1,0,0,1,.027-.082,2.938,2.938,0,0,1,.875-.137c.657,0,.958.3.958.849v1.615c0,.055-.027.11-.082.11Z" transform="translate(-2505.361 -987.797)" fill="#89989f"/>
    <path id="Path_130" data-name="Path 130" d="M3423.985,1882.328a1.606,1.606,0,0,0-.629.109v1.916a1.578,1.578,0,0,0,.629.109c.493,0,.848-.3.848-1.067,0-.794-.328-1.067-.821-1.067Zm.055,2.436a2.211,2.211,0,0,1-.684-.109v1.013c0,.055,0,.055-.055.055h-.219c-.055,0-.082,0-.082-.055v-3.394c0-.027.028-.055.055-.082a2.657,2.657,0,0,1,1.013-.192c.794,0,1.149.575,1.149,1.369C3425.217,1884.135,3424.834,1884.764,3424.04,1884.764Z" transform="translate(-2614.296 -987.797)" fill="#89989f"/>
    <path id="Path_131" data-name="Path 131" d="M3519.522,1883.027h1.314c.164,0,.219.082.219.219v2.354c0,.055-.027.055-.082.055h-.192c-.055,0-.082,0-.082-.055v-2.271h-1.067l-.027.411c-.109,1.341-.164,1.752-.821,1.971a.068.068,0,0,1-.11-.027l-.055-.164c-.027-.055,0-.082.055-.11.411-.164.493-.465.575-1.615l.027-.575c0-.164.082-.219.219-.219Z" transform="translate(-2707.287 -988.77)" fill="#89989f"/>
    <path id="Path_132" data-name="Path 132" d="M3639.095,1883.369c-.246,0-.739.055-.739.575,0,.411.328.52.711.52a2.635,2.635,0,0,0,.684-.109v-.985Zm.958,1.231a2.409,2.409,0,0,1-.985.164c-.848,0-1.067-.411-1.067-.821,0-.493.356-.9,1.067-.9h.684v-.137c0-.356-.109-.575-.657-.575a2.977,2.977,0,0,0-.711.109c-.055.027-.082.027-.082-.027l-.055-.192a.1.1,0,0,1,.027-.082,2.938,2.938,0,0,1,.875-.137c.657,0,.958.3.958.849v1.615c0,.055-.027.11-.082.11Z" transform="translate(-2823.411 -987.797)" fill="#89989f"/>
    <path id="Path_133" data-name="Path 133" d="M3748.383,1886.573c0,.055-.027.055-.082.055h-.219c-.055,0-.082,0-.082-.055v-2.408a.144.144,0,0,1,.165-.164h.137c.109,0,.137.027.191.137.109.219.465.958.575,1.2l.3.63h.027c.082-.164.3-.684.383-.821.109-.164.41-.821.493-1.013.054-.11.082-.137.191-.137h.137a.144.144,0,0,1,.164.164v2.408c0,.055-.027.055-.082.055h-.219c-.055,0-.083,0-.083-.055v-2.025h-.027l-.219.493c-.027.11-.273.575-.547,1.15-.055.109-.082.137-.191.137h-.109c-.11,0-.137-.027-.192-.137l-.547-1.122-.246-.493h-.027v1.971Z" transform="translate(-2930.401 -989.742)" fill="#89989f"/>
    <path id="Path_134" data-name="Path 134" d="M3883.149,1883.3c-.465,0-.739.383-.766.876h1.505C3883.889,1883.712,3883.724,1883.3,3883.149,1883.3Zm1.095.821a.309.309,0,0,1-.328.356h-1.533c0,.712.383.958.849.958a1.4,1.4,0,0,0,.6-.137c.027-.027.082-.027.082.027l.082.164a.052.052,0,0,1-.027.082,1.59,1.59,0,0,1-.767.192c-.739,0-1.2-.41-1.2-1.368,0-.9.493-1.4,1.149-1.4A1,1,0,0,1,3884.244,1884.122Z" transform="translate(-3060.734 -988.77)" fill="#89989f"/>
    <path id="Path_135" data-name="Path 135" d="M3993.3,1886.655h-.219a.073.073,0,0,1-.082-.082v-2.49a.073.073,0,0,1,.082-.082h.219a.073.073,0,0,1,.082.082v.985h1.4v-.985a.073.073,0,0,1,.082-.082h.219a.073.073,0,0,1,.082.082v2.49a.073.073,0,0,1-.082.082h-.219a.073.073,0,0,1-.082-.082V1885.4h-1.4v1.177A.073.073,0,0,1,3993.3,1886.655Z" transform="translate(-3168.695 -989.742)" fill="#89989f"/>
    <path id="Path_136" data-name="Path 136" d="M4096.2,1886.655h-.219a.073.073,0,0,1-.082-.082v-2.244h-.821a.073.073,0,0,1-.082-.082v-.164a.073.073,0,0,1,.082-.082h2.025a.073.073,0,0,1,.082.082v.164c0,.055,0,.082-.082.082h-.848v2.244a.073.073,0,0,1-.083.082Z" transform="translate(-3267.904 -989.742)" fill="#89989f"/>
    <path id="Path_137" data-name="Path 137" d="M1953.6,608.985V611.5c0,.109-.027.137-.137.137h-.328c-.082,0-.137-.027-.137-.137v-2.408a.966.966,0,0,1,1.095-1.095h1.451c.109,0,.109.055.109.137v.274c0,.082-.027.137-.109.137h-1.423c-.356,0-.492.137-.492.465Z" transform="translate(-1184.527 251.336)" fill="#89989f"/>
    <path id="Path_138" data-name="Path 138" d="M2082.4,606.493a2.543,2.543,0,0,0-.794.137v2.49a2.643,2.643,0,0,0,.794.137c.629,0,1.067-.356,1.067-1.368s-.411-1.368-1.095-1.368Zm.109,3.284a3.846,3.846,0,0,1-.9-.109v1.341c0,.082-.027.109-.109.109h-.383c-.082,0-.109-.027-.109-.109v-4.653c0-.055.027-.109.082-.109a3.719,3.719,0,0,1,1.423-.246c1.122,0,1.615.794,1.615,1.888C2084.12,608.928,2083.6,609.777,2082.505,609.777Z" transform="translate(-1309.024 253.281)" fill="#89989f"/>
    <path id="Path_139" data-name="Path 139" d="M2216.412,613.091a2.844,2.844,0,0,1-.575-.082c-.082-.027-.109-.055-.082-.109l.082-.3c.027-.082.055-.082.109-.055a.938.938,0,0,0,.356.055.6.6,0,0,0,.629-.465c.027-.055.164-.465.191-.52h-.137c-.137,0-.219,0-.3-.246l-1.067-3.284c-.027-.055,0-.082.055-.082h.465c.055,0,.082.027.11.082.055.192.547,1.7.6,1.861l.356,1.232h.055c.055-.137.383-1.2.41-1.259s.492-1.451.629-1.834c.028-.055.055-.082.11-.082h.438c.055,0,.082.027.055.082l-1.4,4.16c-.219.629-.52.848-1.04.848Z" transform="translate(-1439.948 251.336)" fill="#89989f"/>
    <path id="Path_140" data-name="Path 140" d="M2364.493,611.64h-.383c-.082,0-.109-.027-.109-.109v-3.257a.28.28,0,0,1,.3-.274h2.49a.3.3,0,0,1,.3.274v3.257c0,.082-.027.109-.109.109h-.383c-.082,0-.109-.027-.109-.109V608.52h-1.861v3.011c0,.082-.027.109-.109.109Z" transform="translate(-1584.279 251.336)" fill="#89989f"/>
    <path id="Path_141" data-name="Path 141" d="M2514.533,606.916c-.328,0-.931.055-.931.712,0,.52.383.657.876.657a2.978,2.978,0,0,0,.876-.137v-1.232h-.821Zm1.314,1.642a3.367,3.367,0,0,1-1.368.246c-1.2,0-1.478-.547-1.478-1.15,0-.629.411-1.232,1.505-1.232h.848v-.164c0-.438-.137-.739-.821-.739a3.227,3.227,0,0,0-.958.137c-.082.027-.109.027-.137-.055l-.082-.3c-.027-.055-.027-.082.055-.109a3.74,3.74,0,0,1,1.231-.192c.931,0,1.341.411,1.341,1.2v2.162a.183.183,0,0,1-.11.192Z" transform="translate(-1729.201 254.254)" fill="#89989f"/>
    <path id="Path_142" data-name="Path 142" d="M2738.465,611.64h-.328c-.082,0-.137-.027-.137-.137v-3.394c0-.109.055-.109.137-.109h.328c.082,0,.137.027.137.109v1.314h1.779v-1.314c0-.109.055-.109.137-.109h.328c.11,0,.137.027.137.109V611.5c0,.109-.027.137-.137.137h-.328c-.082,0-.137-.027-.137-.137v-1.587H2738.6V611.5C2738.6,611.613,2738.547,611.64,2738.465,611.64Z" transform="translate(-1948.043 251.336)" fill="#89989f"/>
    <path id="Path_143" data-name="Path 143" d="M2884.533,606.916c-.328,0-.931.055-.931.712,0,.52.383.657.876.657a2.978,2.978,0,0,0,.876-.137v-1.232h-.821Zm1.314,1.642a3.369,3.369,0,0,1-1.369.246c-1.2,0-1.478-.547-1.478-1.15,0-.629.411-1.232,1.505-1.232h.848v-.164c0-.438-.137-.739-.821-.739a3.227,3.227,0,0,0-.958.137c-.082.027-.109.027-.137-.055l-.082-.3c-.027-.055-.027-.082.055-.109a3.74,3.74,0,0,1,1.231-.192c.931,0,1.341.411,1.341,1.2v2.162a.183.183,0,0,1-.109.192Z" transform="translate(-2089.074 254.254)" fill="#89989f"/>
    <path id="Path_144" data-name="Path 144" d="M1466.7,1584.257l-1.7-1.2,2.107-.055.63-2,.63,1.971,2.08-.027-1.7,1.231.629,2.025-1.669-1.2-1.642,1.2Z" transform="translate(-709.883 -695.035)" fill="#f0a842"/>
    <path id="Path_145" data-name="Path 145" d="M1257.56,1735.4l.876-1.4.137,1.642,1.642.411-1.533.6.137,1.642-1.067-1.286-1.56.63.848-1.4-1.04-1.259Z" transform="translate(-506.603 -843.847)" fill="#f0a842"/>
    <path id="Path_146" data-name="Path 146" d="M824.232,1875.794l.794-.794-.164,1.122.985.52-1.095.164-.192,1.095-.493-1.013-1.067.137.739-.766-.493-1.013Z" transform="translate(-85.454 -980.988)" fill="#f0a842"/>
    <path id="Path_147" data-name="Path 147" d="M1047.286,1823.04l.876-1.04-.082,1.341,1.259.493-1.286.328-.082,1.341-.712-1.149-1.259.3.794-1.013-.712-1.095Z" transform="translate(-302.351 -929.439)" fill="#f0a842"/>
    <path id="Path_148" data-name="Path 148" d="M324.7,350.154a18.25,18.25,0,0,1,16.558-.411c-3.859-5.419-11.577-5.036-14.971-3.093-1.4-5.419-7.061-8.922-12.59-9.36-5.611-.438-11.413,2.135-13.849,6.87s-5.474,15.08,11.3,33.855h0c-7.39-11.741-8.785-18.446-8.594-24.905.164-5.528,3.476-9.47,7.773-10.674,9.251-2.244,13.438,4.406,14.341,7.718Z" transform="translate(425.243 514.683)" fill-rule="evenodd" fill="url(#linear-gradient)"/>
  </g>
</svg>
